<?xml version="1.0" encoding="utf-8"?>
<!-- Generator: Adobe Illustrator 21.1.0, SVG Export Plug-In . SVG Version: 6.00 Build 0)  -->
<svg version="1.1" id="Слой_1" xmlns="http://www.w3.org/2000/svg" xmlns:xlink="http://www.w3.org/1999/xlink" x="0px" y="0px"
	 viewBox="0 0 2000 1200" style="enable-background:new 0 0 2000 1200;" xml:space="preserve">
<style type="text/css">
	.st0{fill:none;}
	.st1{fill:#C5CFD6;}
	.st2{fill:#EBF4FC;}
	.st3{fill:#FFFFFF;}
	.st4{fill:#8991DC;}
	.st5{fill:#5C63AB;}
	.st6{fill:#DDE3E9;}
	.st7{fill:#191847;}
	.st8{fill:#FF4133;}
	.st9{fill:#DB2721;}
	.st10{fill:#FF9B21;}
	.st11{fill:#E87613;}
	.st12{fill:#8E9FA5;}
	.st13{fill:#2F3676;}
</style>
<g>
	<path class="st0" d="M475,1069.6c-1.6-0.1-3.2-0.3-4.8-0.4C471.8,1069.4,473.4,1069.5,475,1069.6z"/>
	<path class="st0" d="M1359.8,1154.2c0.4,0,0.8,0.1,1.2,0.1c0.4-0.1,0.8-0.1,1.2-0.1c2.4,0,4.4,1.6,5,3.8h1.9v-4.5h-50.1v4.5h0.9
		c0.6-2.2,2.6-3.8,5-3.8c0.4,0,0.8,0.1,1.2,0.1c0.4-0.1,0.8-0.1,1.2-0.1c2.4,0,4.4,1.6,5,3.8h22.6
		C1355.4,1155.8,1357.4,1154.2,1359.8,1154.2z"/>
	<path class="st0" d="M1393.4,1148.4h3.4v1.8h7.1v-1.8h2.8v-15c-4.4,0.1-8.8,0.1-13.3,0.2V1148.4z"/>
	<path class="st0" d="M452.1,1067.7c1.1,0.1,2.2,0.2,3.3,0.3C454.3,1067.9,453.2,1067.8,452.1,1067.7z"/>
	<path class="st0" d="M556.5,1039.9c0.3-0.6,0.5-1.2,0.8-1.8C557,1038.7,556.8,1039.3,556.5,1039.9z"/>
	<path class="st0" d="M554.1,1051.9c0.3-5,1.1-8.9,2.4-12C555.2,1043.1,554.4,1047,554.1,1051.9z"/>
	<path class="st0" d="M534.8,1074.3c-0.1,0-0.2,0-0.3,0c1.4-0.1,2.6-0.3,3.8-0.5c-0.6,0.1-1.3,0.2-2,0.3
		C535.8,1074.2,535.3,1074.2,534.8,1074.3z"/>
	<path class="st0" d="M991.6,1164.9c-0.8,0-1.6-0.1-2.4-0.1l-48.8-2.9c-0.3,0-0.6,0-0.9,0c-4.5,6.6-12.1,10.9-20.6,10.9
		c-1,0-1.9-0.1-2.8-0.2l-31.2-1.9c1.2,2,2,4.4,2,7c0,1.8-0.4,3.5-1,5.1c61.3,0.6,114.7,1.5,155.5,2.7c-0.4-1-0.6-2.1-0.6-3.2
		c0-4.9,4-8.8,8.8-8.8c0.7,0,1.3,0.1,2,0.2c0.6-0.1,1.3-0.2,2-0.2c1.4,0,2.7,0.3,3.9,0.9V1161H1042l5.3-13.7c-9.8,0-21.5,0-34.6,0
		C1010.9,1157.3,1002.2,1164.9,991.6,1164.9z"/>
	<path class="st0" d="M528.9,1074.1c-0.1,0-0.3,0-0.4,0C528.6,1074.1,528.8,1074.1,528.9,1074.1z"/>
	<path class="st0" d="M525.6,1073.9c-0.3,0-0.6-0.1-1-0.1C525,1073.8,525.3,1073.8,525.6,1073.9z"/>
	<path class="st0" d="M487.9,1070.7c-1.1-0.1-2.1-0.2-3.2-0.3C485.8,1070.5,486.9,1070.6,487.9,1070.7z"/>
	<path class="st0" d="M532.1,1074.4c0,0-0.2,0-0.6,0C531.9,1074.4,532.1,1074.4,532.1,1074.4z"/>
	<path class="st0" d="M1191.1,1160.9c-0.2,0.8-0.7,1.6-1.3,2.2c3.3-0.1,6.9-0.2,10.7-0.2c-0.5-0.6-0.9-1.2-1.1-2H1191.1z"/>
	<path class="st0" d="M490.6,1070.9c-0.8-0.1-1.6-0.1-2.4-0.2C489,1070.8,489.8,1070.9,490.6,1070.9z"/>
	<path class="st0" d="M522.7,1073.6c-1.5-0.1-3.1-0.3-4.8-0.4C519.6,1073.4,521.2,1073.5,522.7,1073.6z"/>
	<path class="st0" d="M460.6,1068.4c-1.3-0.1-2.6-0.2-3.9-0.3C458,1068.2,459.3,1068.3,460.6,1068.4z"/>
	<path class="st0" d="M1437.8,1158c0.6-2.2,2.6-3.8,5-3.8c0.4,0,0.8,0.1,1.2,0.1c0.4-0.1,0.8-0.1,1.2-0.1c2.4,0,4.4,1.6,5,3.8h22.6
		c0.6-2.2,2.6-3.8,5-3.8c0.4,0,0.8,0.1,1.2,0.1c0.4-0.1,0.8-0.1,1.2-0.1c2.4,0,4.4,1.6,5,3.8h1.9v-4.5h-50.1v4.5H1437.8z"/>
	<path class="st0" d="M1304.2,1154.2c0.4,0,0.8,0.1,1.2,0.1c0.4-0.1,0.8-0.1,1.2-0.1c2.4,0,4.4,1.6,5,3.8h4.5v-4.5h-30v-1.8h-9.6
		v-1.5h9.6v-1.8h2.8v-13.8c-5.2,0-10.5,0.1-15.9,0.1v13.7h3.4v5h-24.9v4.5h3.5c0.6-2.2,2.6-3.8,5-3.8c0.4,0,0.8,0.1,1.2,0.1
		c0.4-0.1,0.8-0.1,1.2-0.1c2.9,0,5.2,2.3,5.2,5.2c0,1-0.3,1.9-0.8,2.7c10.5-0.1,21.5-0.1,32.9-0.2c-0.4-0.7-0.7-1.6-0.7-2.5
		C1299,1156.5,1301.3,1154.2,1304.2,1154.2z"/>
	<path class="st0" d="M565.4,1029.4c0.3-0.2,0.5-0.3,0.8-0.5C565.9,1029,565.7,1029.2,565.4,1029.4z"/>
	<path class="st0" d="M1311.5,1160.9c-0.1,0.4-0.2,0.7-0.4,1c3,0,6.1,0,9.1,0c-0.2-0.3-0.3-0.6-0.4-1H1311.5z"/>
	<path class="st0" d="M562.3,1031.8c-1.1,1-2.1,2-2.9,3.1C560.3,1033.8,561.2,1032.8,562.3,1031.8z"/>
	<path class="st0" d="M1204.4,1154.2c0.4,0,0.8,0.1,1.2,0.1c0.4-0.1,0.8-0.1,1.2-0.1c2.4,0,4.4,1.6,5,3.8h22.6
		c0.6-2.2,2.6-3.8,5-3.8c0.4,0,0.8,0.1,1.2,0.1c0.4-0.1,0.8-0.1,1.2-0.1c2.4,0,4.4,1.6,5,3.8h1.9v-4.5h-50.1v4.5h0.9
		C1200,1155.8,1202,1154.2,1204.4,1154.2z"/>
	<path class="st0" d="M1211.7,1160.9c-0.2,0.7-0.5,1.3-1,1.8c7.5-0.1,15.6-0.2,24.3-0.3c-0.3-0.4-0.5-1-0.7-1.5H1211.7z"/>
	<path class="st0" d="M1246.7,1160.9c-0.1,0.5-0.3,1-0.6,1.4c3.1,0,6.3-0.1,9.5-0.1c-0.3-0.4-0.4-0.8-0.6-1.3H1246.7z"/>
	<path class="st0" d="M567,1028.3c0.2-0.1,0.4-0.3,0.6-0.4C567.5,1028.1,567.3,1028.2,567,1028.3z"/>
	<path class="st0" d="M1422.1,1154.2c0.4,0,0.8,0.1,1.2,0.1c0.4-0.1,0.8-0.1,1.2-0.1c2.4,0,4.4,1.6,5,3.8h4.5v-4.5h-30v-1.8h-7.1
		v1.8h-24.9v4.5h3.5c0.6-2.2,2.6-3.8,5-3.8c0.4,0,0.8,0.1,1.2,0.1c0.4-0.1,0.8-0.1,1.2-0.1c2.9,0,5.2,2.3,5.2,5.2
		c0,0.9-0.3,1.8-0.7,2.5c10.5,0,20.7,0.1,30.4,0.2c-0.5-0.8-0.8-1.7-0.8-2.7C1416.9,1156.5,1419.2,1154.2,1422.1,1154.2z"/>
	<path class="st0" d="M557.4,1038.1c0.3-0.6,0.6-1.1,0.9-1.6C558,1037,557.7,1037.5,557.4,1038.1z"/>
	<path class="st0" d="M558.3,1036.4c0.3-0.5,0.7-1,1-1.5C559,1035.4,558.7,1035.9,558.3,1036.4z"/>
	<path class="st0" d="M1429.5,1160.9c-0.1,0.5-0.3,0.9-0.6,1.3c3.2,0,6.4,0.1,9.5,0.1c-0.3-0.4-0.5-0.9-0.6-1.4H1429.5z"/>
	<path class="st0" d="M562.6,1031.5c0.3-0.2,0.6-0.5,0.9-0.7C563.2,1031,562.9,1031.3,562.6,1031.5z"/>
	<path class="st0" d="M1332.2,1160.9c-0.1,0.3-0.2,0.7-0.4,1c2.9,0,5.8,0,8.7,0c5,0,9.9,0,14.8,0c-0.2-0.3-0.3-0.6-0.4-1H1332.2z"/>
	<path class="st0" d="M564,1030.4c0.3-0.2,0.5-0.4,0.8-0.6C564.5,1030,564.2,1030.2,564,1030.4z"/>
	<path class="st0" d="M1367.1,1160.9c-0.1,0.4-0.2,0.7-0.4,1c3.1,0,6.1,0,9.1,0c-0.2-0.3-0.3-0.7-0.4-1H1367.1z"/>
	<path class="st0" d="M510.5,1072.6c-0.4,0-0.8-0.1-1.2-0.1C509.7,1072.5,510.1,1072.6,510.5,1072.6z"/>
	<path class="st0" d="M552.7,1062.7c-0.1,0.3-0.2,0.5-0.4,0.8C552.4,1063.2,552.6,1063,552.7,1062.7z"/>
	<path class="st0" d="M553.9,1057.6c0,0.2-0.1,0.4-0.1,0.6C553.8,1058,553.9,1057.8,553.9,1057.6z"/>
	<path class="st0" d="M551.1,1065.6c-0.2,0.3-0.4,0.6-0.6,0.9C550.7,1066.2,550.9,1065.9,551.1,1065.6z"/>
	<path class="st0" d="M552,1064.2c-0.1,0.3-0.3,0.6-0.5,0.8C551.7,1064.8,551.8,1064.5,552,1064.2z"/>
	<path class="st0" d="M553.7,1059.4c0,0.2-0.1,0.5-0.2,0.7C553.5,1059.9,553.6,1059.6,553.7,1059.4z"/>
	<path class="st0" d="M1473.7,1162.8c-0.5-0.5-0.8-1.2-1-1.9h-22.6c-0.2,0.6-0.4,1.1-0.7,1.5
		C1458.1,1162.5,1466.3,1162.6,1473.7,1162.8z"/>
	<path class="st0" d="M540.3,1073.3c-0.6,0.2-1.2,0.3-1.8,0.5C539.1,1073.6,539.7,1073.4,540.3,1073.3z"/>
	<path class="st0" d="M554.1,1052c0,0.4,0,0.9-0.1,1.4C554.1,1052.9,554.1,1052.4,554.1,1052z"/>
	<path class="st0" d="M1494.7,1163.2c-0.7-0.6-1.1-1.4-1.4-2.3h-8.3c-0.2,0.8-0.6,1.5-1.2,2.1
		C1487.8,1163,1491.4,1163.1,1494.7,1163.2z"/>
	<path class="st0" d="M553.2,1061.1c-0.1,0.3-0.2,0.5-0.3,0.8C553.1,1061.6,553.2,1061.3,553.2,1061.1z"/>
	<path class="st0" d="M549.4,1067.9c-1.5,1.6-3.3,3-5.5,4C546,1070.8,547.9,1069.5,549.4,1067.9z"/>
	<path class="st0" d="M769.1,1161v3.3c0.7-0.1,1.4-0.2,2.1-0.2c7.4,0,13.4,6,13.4,13.4c0,1.6-0.3,3.1-0.8,4.5
		c17.5,0,34.6,0.1,51.4,0.2c-0.6-1.5-0.9-3.1-0.9-4.7c0-6.7,4.9-12.2,11.3-13.3c-4.9-3.9-8-9.9-8-16.6c0-0.1,0-0.2,0-0.4
		c-21.5,0-42.8,0-63.1,0l3.6,13.7H769.1z"/>
	<path class="st0" d="M550.2,1066.9c-0.3,0.3-0.5,0.6-0.8,0.9C549.7,1067.5,549.9,1067.2,550.2,1066.9z"/>
	<path class="st0" d="M543.9,1071.9c-0.5,0.3-1.1,0.5-1.6,0.7C542.8,1072.4,543.3,1072.2,543.9,1071.9z"/>
	<path class="st0" d="M542.1,1072.7c-0.5,0.2-1.1,0.4-1.7,0.6C541,1073.1,541.6,1072.9,542.1,1072.7z"/>
	<path class="st1" d="M1149.6,1126.2c-2.2,3.7-5.4,6.8-9.5,9c9.5,0,19,0,28.3-0.1v-8.9H1149.6z"/>
	<path class="st1" d="M1277,1126.2L1277,1126.2l-4.1,0v8.4c5.3,0,10.6-0.1,15.9-0.1v-8.3H1277z"/>
	<path class="st1" d="M1551.7,1125.8H1530h-9.4h-9.3v5.7c63-1.5,100.3-3.3,100.3-5.3v0h-60V1125.8z"/>
	<path class="st1" d="M1406.8,1133.4v-7.6h-13.3v7.7C1397.9,1133.5,1402.4,1133.5,1406.8,1133.4z"/>
	<path class="st1" d="M1066.3,1191c-0.7,0-1.3-0.1-2-0.2c-0.6,0.1-1.3,0.2-2,0.2c-1.6,0-3.1-0.4-4.4-1.2c-1.3,0.8-2.8,1.2-4.4,1.2
		c-0.7,0-1.3-0.1-2-0.2c-0.6,0.1-1.3,0.2-2,0.2c-3.7,0-6.9-2.3-8.2-5.6c-40.8-1.2-94.2-2.1-155.5-2.7c-2,4.9-6.8,8.3-12.4,8.3
		c-1,0-2.1-0.1-3-0.4c-1,0.2-2,0.4-3,0.4c-2.5,0-4.7-0.7-6.7-1.8c-2,1.1-4.3,1.8-6.7,1.8c-1,0-2.1-0.1-3-0.4c-1,0.2-2,0.4-3,0.4
		c-5.8,0-10.7-3.6-12.6-8.7c-16.7-0.1-33.9-0.2-51.4-0.2c-1.9,5.2-6.8,8.9-12.7,8.9c-1,0-2.1-0.1-3-0.4c-1,0.2-2,0.4-3,0.4
		c-2.5,0-4.7-0.7-6.7-1.8c-2,1.1-4.3,1.8-6.7,1.8c-1,0-2.1-0.1-3-0.4c-1,0.2-2,0.4-3,0.4c-5.9,0-10.8-3.8-12.7-9
		c-205,0.1-369.3,4.1-369.3,9c0,5,170.6,9,381,9s381-4,381-9c0-1.6-18.8-3.2-51.6-4.5C1072.5,1189.2,1069.6,1191,1066.3,1191z"/>
	<polygon class="st2" points="1347.6,558.4 1344.6,543.6 1346.5,553.2 	"/>
	<path class="st2" d="M1239.7,766.7c36.8-20.7,71.6-34.8,102.8-42.4v-69.7h-6.9l-1.5,0l-0.8-56.6l-27.3-65.2l-1-6h-9.6v-18h70.1
		v-0.8c0-4.4,3.6-8.1,8.1-8.1h6v-98.6h2.3v98.6h6c4.4,0,8.1,3.6,8.1,8.1v0.8h70.1v18h-8.2h-1.4l-1,6l-27.3,65.2l-0.8,56.2l0,0.4
		l-1.5,0h-6.8v65.9c59.8,12.4,85.4,69.4,48.8,172.2c-16,44.9-30,82-42,112.3c73-12.3,140-77.9,195.5-213.4c-7.6,2-19.4,3.5-36.4,3.5
		c-62.7,0-66.1-12.8-44.2-18.1c0,0,3.8-32.5,39.9,2.8c3.7-4.4,28.1-32.3,34.1,1.2c4.3-1,8.2-1.2,11.2-0.8
		c17.3-43.8,33.4-94.5,48.2-152.7c19.4-76.3,20.1-149.8,6.1-217.9c-11.7,1.9-24.6,2.9-38,2.5c-226.8-6.2-171-37.9-91.5-37.9
		c-7.2-20.5,55.4-69,116.8-12.7C1582.7,98.3,1272.4-67.8,983.3,26.8c-54.4,17.8-105,38.5-151.4,61.4c24.7,18.4,51.5,44.6,80.5,80.5
		c0,0,58.2-123.9,196.1,14.8c149.6-17.9,257.1,95-72.4,113.7c-188.8,10.7-355.4-17.7-426.6-54.9c-178.9,178.1-166.2,382.9,127,429.9
		c125,20,140.4,90.5,195.4,162.7C1032.8,850.3,1126.8,830.3,1239.7,766.7z M1024.5,596.8c-8.5-24.1,70.1-83,141.5-1.1
		c105.9,4.3,38.7,45.2-40.5,43.1C875,631.8,936.7,596.8,1024.5,596.8z"/>
	<polygon class="st2" points="1310.7,534 1336.2,594.8 1327.2,573.4 	"/>
	<polygon class="st2" points="1347,534 1356.7,581.8 1351.9,558.1 	"/>
	<polygon class="st2" points="1411,580 1411,580 1408,594.8 1409.8,585.8 	"/>
	<polygon class="st2" points="1415.4,558.4 1412,574.8 1412,574.8 	"/>
	<polygon class="st2" points="1426,594.8 1438,566.1 1434.9,573.7 	"/>
	<polygon class="st2" points="1355,594.8 1354.3,591.3 1354.3,591.3 	"/>
	<polygon class="st3" points="1342.1,601.9 1337.9,601.9 1337.8,601.9 1337.8,602.9 1337.8,603.1 1338.2,631.6 1338.3,635 
		1338.4,641 1338.5,648.6 1355.6,648.6 1355.6,624.5 1355.6,619.1 1355.6,614.1 1355.6,601.9 1350.6,601.9 	"/>
	<polygon class="st3" points="1373.3,601.9 1360.1,601.9 1360.1,601.9 1360.1,648.6 1360.8,648.6 1378.5,648.6 1379,648.6 
		1379,601.9 1378.5,601.9 	"/>
	<polygon class="st3" points="1383.7,601.9 1383.7,648.6 1384.4,648.6 1402.6,648.6 1402.6,624.5 1402.6,619.1 1402.6,614.1 
		1402.6,601.9 1397.2,601.9 	"/>
	<polygon class="st3" points="1424.9,601.9 1419.8,601.9 1407.1,601.9 1407.1,602.5 1407.1,648.6 1407.7,648.6 1424.2,648.6 	"/>
	<polygon class="st3" points="1347,534 1351.9,558.1 1356.7,581.8 1359.3,594.8 1379,594.8 1379,564.3 1379,556.8 1379,549.9 
		1379,534 1365.8,534 	"/>
	<polygon class="st3" points="1342.7,594.8 1347.1,594.8 1355,594.8 1354.3,591.3 1354.3,591.3 1353.3,586.7 1347.6,558.4 
		1346.5,553.2 1344.6,543.6 1342.6,534 1330.6,534 1310.7,534 1327.2,573.4 1336.2,594.8 1338.7,594.8 	"/>
	<polygon class="st3" points="1406.7,534 1383.7,534 1383.7,556.5 1383.7,579 1383.7,583.9 1383.7,589.8 1383.7,594.8 1403.1,594.8 
		1405.9,581.1 1406.5,578.3 1415.5,534 	"/>
	<polygon class="st3" points="1412,574.8 1412,574.8 1411,580 1411,580 1409.8,585.8 1408,594.8 1426,594.8 1434.9,573.7 
		1438,566.1 1441.2,558.6 1451.5,534 1441.9,534 1420.3,534 1415.4,558.4 	"/>
	<path class="st1" d="M1425.6,654.6l1.5,0l0-0.4l0.8-56.2l27.3-65.2l1-6h1.4h8.2v-18h-70.1v-0.8c0-4.4-3.6-8.1-8.1-8.1h-6v-98.6
		h-2.3v98.6h-6c-4.4,0-8.1,3.6-8.1,8.1v0.8h-70.1v18h9.6l1,6l27.3,65.2l0.8,56.6l1.5,0h6.9v69.7c29-7,54.8-8.3,76.3-3.9v-65.9
		H1425.6z M1310.7,534h19.9h12l2,9.6l3,14.8l5.7,28.3l0.9,4.6l0.7,3.5h-7.9h-4.4h-4.1h-2.5L1310.7,534z M1355.6,614.1v5.1v5.4v24.1
		h-17.1l-0.1-7.6l-0.1-6l0-3.4l-0.4-28.5l0-0.1l0-1.1h0.1h4.1h8.5h5V614.1z M1379,648.6h-0.6h-17.7h-0.7v-46.8v0h13.1h5.2h0.6V648.6
		z M1379,549.9v6.9v7.5v30.4h-19.7l-2.6-13L1347,534h18.8h13.3V549.9z M1441.9,534h9.6l-10.3,24.6l-3.2,7.6l-12,28.6H1408l3-14.7
		l1.1-5.2l3.3-16.4l5-24.4H1441.9z M1402.6,614.1v5.1v5.4v24.1h-18.2h-0.7v-46.8h13.5h5.4V614.1z M1405.9,581.1l-2.8,13.7h-19.5
		v-4.9v-6V579v-22.5V534h23h8.8l-9,44.3L1405.9,581.1z M1407.1,648.6v-46.2v-0.6h12.7h5l-0.7,46.8h-16.5H1407.1z"/>
	<path class="st1" d="M1380.5,1109.1h12.9v16.8h13.3v-16.8h12v-42.3H1400C1391.7,1085.8,1385.2,1099.6,1380.5,1109.1z"/>
	<polygon class="st1" points="1433.6,1109.1 1480.9,1109.1 1480.9,1062.7 1488.8,1062.7 1488.8,1029.3 1418.8,1029.3 1418.8,1066.7 
		1418.8,1109.1 	"/>
	<polygon class="st1" points="1480.9,1109.1 1511.4,1109.1 1511.4,1125.8 1520.6,1125.8 1520.6,1062.7 1488.8,1062.7 1480.9,1062.7 
			"/>
	<polygon class="st1" points="1520.6,1125.8 1530,1125.8 1551.7,1125.8 1551.7,1056.9 1556,1056.9 1556,973.1 1520.6,973.1 
		1520.6,1062.7 	"/>
	<polygon class="st1" points="1556,1056.9 1551.7,1056.9 1551.7,1125.8 1551.7,1126.2 1611.7,1126.2 1611.7,1126.2 1611.7,1056.9 	
		"/>
	<polygon class="st1" points="1611.7,1056.9 1611.7,1126.2 1626.8,1126.2 1638.4,1126.2 1638.4,1035.6 1611.7,1035.6 	"/>
	<path class="st1" d="M704.7,959c-6-24.3-10.7-49.1-12.5-74.2c-0.9-12.5-1-25.1,0.5-37.6c0.8-6.2,1.9-12.5,3.9-18.4
		c1.9-6,4.7-11.8,8.9-16.6c2.1-2.4,4.6-4.4,7.4-6c2.8-1.5,5.9-2.5,9-3c3.2-0.5,6.4-0.3,9.5,0c3.1,0.3,6.3,0.8,9.3,1.5
		c12.3,2.8,23.9,7.9,35.4,12.8c11.5,5,22.9,10.2,34.5,14.9c11.6,4.8,23.3,9.1,35.3,13c23.8,7.7,48.3,13.4,73.1,17.1
		c24.8,3.7,49.8,5.6,74.9,6.1c12.5,0.2,25.1,0.1,37.6-0.3c12.5-0.4,25-1.3,37.4-2.9c24.8-3.1,49.3-8.7,73-16.8
		c23.7-8.1,46.4-18.7,68.3-30.7c2.4-1.3,4.9-2.7,7.3-4.1c0.6-0.4,1.1-0.7,1.7-1.1c1.1-0.7,2.2-1.3,3.2-2c12.7-7.9,26-16,39.5-23.9
		c1.1-0.6,2.2-1.2,3.2-1.9c3.7-2.1,7.5-4.3,11.3-6.3c10.3-6.1,20.7-12,31.5-17.3c11.3-5.6,23-10.5,35.2-14
		c12.1-3.6,24.7-5.9,37.4-6.3c2.6-0.1,5.3-0.1,7.9-0.1c0.6,0,1.2,0,1.7,0c1.1,0,2.2,0,3.2,0.1c4.6,0.2,9.2,0.6,13.6,1.4
		c3.8,0.5,7.5,1.2,11.3,2c6.2,1.5,12.3,3.7,17.9,6.9c5.6,3.1,10.7,7.3,14.8,12.3c4.1,5,7.2,10.7,9.4,16.7c2.2,6,3.5,12.3,4.3,18.5
		c1.5,12.6,0.9,25.3-0.6,37.7c-1.6,12.5-3.9,24.8-6.8,37.1c-3.9,16.5-8.8,32.8-14.1,48.9c-2.2,7-4.5,14.3-7.1,21.8
		c-1.1,3.1-2.1,6.3-3.2,9.5c-10.6,30.4-23.8,64.3-39.5,101.9c-1.1,2.6-2.2,5.1-3.2,7.7c-6.2,14.6-12.7,29.8-19.6,45.5h10
		c4.7-9.5,11.1-23.3,19.5-42.3c7.2-16.5,15.7-36.8,25.6-61.8c12-30.3,26-67.4,42-112.3c36.6-102.8,11-159.8-48.8-172.2
		c-21.5-4.4-47.3-3.2-76.3,3.9c-31.2,7.5-66,21.7-102.8,42.4c-112.9,63.5-206.8,83.6-307.8,68.2c-47.6-7.2-96.8-22.4-150.2-44.5
		c-139.4-57.8-117,73.1-66.7,236.6h11C717.6,1004.8,710.5,982.1,704.7,959z"/>
	<path class="st1" d="M700.7,830.1c-0.8,2.4-1.5,4.8-2.1,7.3c1.7-5.8,3.3-10.6,5.1-14.7C702.6,825.1,701.6,827.6,700.7,830.1z"/>
	<path class="st1" d="M724,1020.9c0.3,0.8,0.5,1.6,0.8,2.4C724.5,1022.5,724.2,1021.7,724,1020.9z"/>
	<polygon class="st4" points="1304.7,860.7 1265.1,919.3 1265.1,1086.2 1304.7,1027.6 	"/>
	<polygon class="st4" points="1350.7,1017.1 1350.7,1035.7 1390.2,977.1 1390.2,958.5 	"/>
	<path class="st4" d="M803.8,836l-9,13.3v168.7l39.5-58.6V848.3c-8.8-3.2-17.4-6.6-26-10.2C806.8,837.4,805.3,836.7,803.8,836z"/>
	<path class="st4" d="M773.9,822.6c-7.3-3.2-14.5-6.5-21.8-9.1v72.2l37.7-55.9C784.4,827.4,779.1,825,773.9,822.6z"/>
	<path class="st4" d="M837.6,849.4v105.3l39.5-58.6v-34.7c-11.2-2.8-22.3-6-33.2-9.7C841.8,850.9,839.7,850.1,837.6,849.4z"/>
	<polygon class="st4" points="837.6,999.2 877.1,940.6 877.1,923.1 837.6,981.7 	"/>
	<path class="st4" d="M880.3,862.1v29.1l17.1-25.4C891.7,864.8,886,863.5,880.3,862.1z"/>
	<path class="st4" d="M730.9,808.1c-1.4-0.2-2.9-0.3-4.3-0.3c-1.4,0-2.7,0-4,0.2c-5.1,0.6-9.7,3-13.3,6.8v134.3l39.5-58.6v-78.2
		c-3.1-1-6.1-2-9.2-2.7C736.7,808.9,733.8,808.4,730.9,808.1z"/>
	<path class="st4" d="M706,818.9c-0.8,1.2-1.6,2.5-2.3,3.9c-1.8,4-3.5,8.9-5.1,14.7c-0.8,3.4-1.4,6.8-1.9,10.3
		c-1.6,12.1-1.7,24.5-1.1,36.9c0.7,12.4,2.1,24.8,4,37.1c1.7,10.9,3.7,21.8,6.1,32.6l0.3-0.4V818.9z"/>
	<path class="st4" d="M913.7,868.9l-33.3,49.4v17.5l39.5-58.6v-7.3c-0.6-0.1-1.3-0.2-1.9-0.3C916.5,869.4,915.1,869.1,913.7,868.9z"
		/>
	<polygon class="st4" points="1304.7,1085.3 1277,1126.2 1288.8,1126.2 1288.8,1109.1 1301.2,1109.1 1304.7,1103.9 	"/>
	<polygon class="st4" points="1347.4,1021.9 1307.9,1080.5 1307.9,1099.1 1347.4,1040.5 	"/>
	<polygon class="st4" points="1319.4,1109.1 1347.4,1109.1 1347.4,1067.6 	"/>
	<polygon class="st4" points="1261.9,924.1 1222.4,982.7 1222.4,1109.1 1249.7,1109.1 1261.9,1091 	"/>
	<polygon class="st4" points="1136.9,1017.5 1136.9,1034.2 1176.4,975.7 1176.4,958.9 	"/>
	<path class="st4" d="M923.1,870.4v2l1.2-1.8C923.9,870.5,923.5,870.4,923.1,870.4z"/>
	<path class="st4" d="M710.5,974.4c4,15.6,8.4,31.2,13.5,46.5c0.3,0.8,0.5,1.6,0.8,2.4c0.4,1.2,0.8,2.5,1.3,3.7h22.7V917.6
		L710.5,974.4z"/>
	<polygon class="st4" points="982.9,1027 1002.4,1027 1005.3,1027 1005.3,993.7 	"/>
	<polygon class="st4" points="880.3,1025 880.3,1027 919.8,1027 919.8,966.4 	"/>
	<polygon class="st4" points="1219.1,987.5 1179.6,1046.1 1179.6,1109.1 1195.2,1109.1 1219.1,1109.1 	"/>
	<polygon class="st4" points="923.1,961.6 923.1,1027 962.6,1027 962.6,903 	"/>
	<polygon class="st4" points="834.3,986.5 807,1027 818.8,1027 834.3,1004 	"/>
	<polygon class="st4" points="791.5,854.2 752,912.7 752,1027 788.8,1027 791.5,1022.9 	"/>
	<path class="st4" d="M1090.9,870.1c-0.8,0.2-1.7,0.3-2.5,0.5l-37,54.9v102.8c8.5,1.3,16.8,3.5,24.8,6.7c5.1,2,10,4.5,14.7,7.2
		V870.1z"/>
	<path class="st4" d="M1133.6,1022.3l-23.2,34.4c2.2,2,4.3,4.2,6.3,6.4l0.3,0.4l16.5-24.5V1022.3z"/>
	<path class="st4" d="M1146.2,1095.7l0.6,0.7c5.7,6.3,7.5,14.5,5.9,22c-0.6,2.8-1.6,5.4-3.1,7.9h18.8v-17.2h8v-58.1L1146.2,1095.7z"
		/>
	<polygon class="st4" points="1347.4,964.2 1347.4,797.3 1307.9,855.9 1307.9,1022.8 	"/>
	<path class="st4" d="M1265.1,794.3v6l6.9-10.2C1269.7,791.5,1267.4,792.9,1265.1,794.3z"/>
	<path class="st4" d="M1219.1,812.7c-0.6,0.4-1.1,0.7-1.7,1.1C1218,813.5,1218.6,813.1,1219.1,812.7L1219.1,812.7z"/>
	<path class="st4" d="M1048.1,930.3l-39.5,58.6v38.2h26.5c4.4,0,8.7,0.3,13,0.8V930.3z"/>
	<path class="st4" d="M1304.7,771.1c-0.8,0.4-1.7,0.9-2.5,1.3l-37,54.8V844l39.5-58.6V771.1z"/>
	<path class="st4" d="M1051.3,875.2v23.2l16.7-24.8C1062.5,874.2,1056.9,874.8,1051.3,875.2z"/>
	<path class="st4" d="M1319.2,763.9c-2.7,1.3-5.4,2.6-8.1,3.9c-1.1,0.5-2.1,1.1-3.2,1.7v11.2L1319.2,763.9z"/>
	<path class="st4" d="M1136.9,858.6v131.9l39.5-58.6v-88.4c-10.5,4.7-21.1,8.9-32,12.6C1141.9,857,1139.4,857.8,1136.9,858.6z"/>
	<path class="st4" d="M981,875.8l-15.1,22.4v127l39.5-58.6v-90.2c-3.9,0-7.8-0.1-11.7-0.2C989.4,876.1,985.2,876,981,875.8z"/>
	<path class="st4" d="M1008.6,876.4v85.4l39.5-58.6v-27.9c-5.5,0.3-11,0.6-16.4,0.8C1024,876.3,1016.3,876.4,1008.6,876.4z"/>
	<polygon class="st4" points="1219.1,895.5 1179.6,954.1 1179.6,970.8 1219.1,912.3 	"/>
	<path class="st4" d="M1219.1,821.9c-1.7,1-3.5,1.9-5.2,2.9c-11.2,6.2-22.6,12-34.3,17.3v85l39.5-58.6V821.9z"/>
	<path class="st4" d="M1261.9,796.3c-5.1,3.1-10.1,6.3-15.2,9.4c-8,4.9-16.1,9.7-24.3,14.4v43.6l39.5-58.6V796.3z"/>
	<polygon class="st4" points="1261.9,832.1 1222.4,890.7 1222.4,907.4 1261.9,848.9 	"/>
	<path class="st4" d="M1094.1,1044.2c1.5,1,3,2,4.5,3l35-51.9V859.6c-13,4-26.2,7.3-39.5,9.9V1044.2z"/>
	<path class="st4" d="M1436.2,942.9c1.5-4.4,2.9-8.9,4.3-13.3l-4.3,6.4V942.9z"/>
	<path class="st4" d="M1390.2,1004.2l-39.5,58.6v46.3h19.9c6.9-15.7,13.4-30.9,19.6-45.5V1004.2z"/>
	<path class="st4" d="M1274.8,779.5c0.5-0.3,1.1-0.6,1.6-0.9c-3.8,2.1-7.5,4.2-11.3,6.3v0.4C1268.4,783.4,1271.6,781.4,1274.8,779.5
		z"/>
	<path class="st4" d="M1441.5,928l-0.2,0.3c-1.7,4.9-3.4,9.8-5.1,14.7v1.3c2.5-7.5,4.9-14.7,7.1-21.8c0,0,0,0,0,0
		C1442.7,924.4,1442.1,926.2,1441.5,928z"/>
	<polygon class="st4" points="1432.9,895.1 1393.4,953.7 1393.4,972.3 1432.9,913.7 	"/>
	<path class="st4" d="M1393.4,999.4v56.4c15.7-37.6,28.9-71.5,39.5-101.9v-13.1L1393.4,999.4z"/>
	<path class="st4" d="M1460.3,796.9c-1-5.2-2.3-10.2-4.2-15c-2.2-5.5-5.2-10.6-9.1-15c-3.1-3.5-6.8-6.6-10.8-9.1v74.7L1460.3,796.9z
		"/>
	<path class="st4" d="M1436.2,908.9l17.2-25.5c0.8-3.4,1.6-6.8,2.3-10.1c1.2-5.5,2.2-11,3.1-16.6l-22.7,33.6V908.9z"/>
	<path class="st4" d="M1261.9,787.3v-0.5c-13.5,7.8-26.8,16-39.5,23.9v0.2C1235.7,803.3,1248.7,795.3,1261.9,787.3z"/>
	<path class="st4" d="M1432.9,837.4v-81.3c-5-2.6-10.4-4.4-16-5.6c-7.7-1.6-15.6-2.6-23.5-2.9V896L1432.9,837.4z"/>
	<path class="st4" d="M1390.2,740.9c-0.6,0-1.2,0-1.7,0C1389,740.9,1389.6,740.9,1390.2,740.9L1390.2,740.9z"/>
	<path class="st4" d="M1407,742.4c-4.5-0.8-9-1.3-13.6-1.4v0.1C1398,741.3,1402.5,741.8,1407,742.4z"/>
	<path class="st4" d="M1350.7,959.4l39.5-58.6V747.4c-3.1-0.1-6.1,0-9.2,0.1l-30.3,45V959.4z"/>
	<polygon class="st3" points="837.6,999.2 837.6,1027 877.1,1027 877.1,940.6 	"/>
	<path class="st3" d="M923.1,872.4v89.2l39.5-58.6v-28.3c-12.8-0.9-25.6-2.3-38.3-4.1L923.1,872.4z"/>
	<polygon class="st3" points="818.8,1027 834.3,1027 834.3,1004 	"/>
	<polygon class="st3" points="880.3,1025 919.8,966.4 919.8,877.2 880.3,935.8 	"/>
	<path class="st3" d="M981,875.8c-5-0.2-10.1-0.5-15.1-0.8v23.3L981,875.8z"/>
	<path class="st3" d="M1133.6,995.3l-35,51.9c2.2,1.5,4.3,3.1,6.3,4.8c1.9,1.5,3.7,3.1,5.5,4.8l23.2-34.4V995.3z"/>
	<polygon class="st3" points="1136.9,990.5 1136.9,1017.5 1176.4,958.9 1176.4,931.9 	"/>
	<polygon class="st3" points="1219.1,868.5 1179.6,927.1 1179.6,954.1 1219.1,895.5 	"/>
	<polygon class="st3" points="1261.9,805.1 1222.4,863.7 1222.4,890.7 1261.9,832.1 	"/>
	<path class="st3" d="M1278.7,786c-2.2,1.3-4.4,2.7-6.7,4.1l-6.9,10.2v27.1l37-54.8C1294.2,776.8,1286.4,781.3,1278.7,786z"/>
	<path class="st3" d="M897.4,865.9l-17.1,25.4v27.1l33.3-49.4C908.2,868,902.8,867,897.4,865.9z"/>
	<polygon class="st3" points="837.6,981.7 877.1,923.1 877.1,896.1 837.6,954.7 	"/>
	<polygon class="st3" points="788.8,1027 791.5,1027 791.5,1022.9 	"/>
	<polygon class="st3" points="834.3,959.5 794.8,1018.1 794.8,1027 807,1027 834.3,986.5 	"/>
	<path class="st3" d="M794.8,832.1v17.3l9-13.3C800.8,834.7,797.8,833.4,794.8,832.1z"/>
	<path class="st3" d="M752,885.7v27.1l39.5-58.6v-23.5c-0.6-0.3-1.2-0.5-1.8-0.8L752,885.7z"/>
	<path class="st3" d="M709.3,969.5c0.4,1.6,0.8,3.2,1.2,4.8l38.3-56.8v-27.1l-39.5,58.6V969.5z"/>
	<path class="st3" d="M705.7,954.3c0.1,0.4,0.2,0.9,0.3,1.3v-1.8L705.7,954.3z"/>
	<polygon class="st3" points="1008.6,961.8 1008.6,988.8 1048.1,930.3 1048.1,903.2 	"/>
	<polygon class="st3" points="1005.3,966.6 965.8,1025.2 965.8,1027 982.9,1027 1005.3,993.7 	"/>
	<path class="st3" d="M1068.1,873.6l-16.7,24.8v27.1l37-54.9c-6.2,1.1-12.3,2-18.5,2.8C1069.2,873.5,1068.7,873.5,1068.1,873.6z"/>
	<polygon class="st3" points="1347.4,1040.5 1307.9,1099.1 1307.9,1109.1 1315.7,1109.1 1319.4,1109.1 1347.4,1067.6 	"/>
	<polygon class="st3" points="1350.7,1035.7 1350.7,1062.8 1390.2,1004.2 1390.2,977.1 	"/>
	<polygon class="st3" points="1301.2,1109.1 1304.7,1109.1 1304.7,1103.9 	"/>
	<path class="st3" d="M1436.2,936l4.3-6.4c4.8-15.2,9.2-30.6,12.9-46.2l-17.2,25.5V936z"/>
	<path class="st3" d="M1443.2,922.6c-0.6,1.9-1.3,3.8-1.9,5.7l0.2-0.3C1442.1,926.2,1442.7,924.4,1443.2,922.6z"/>
	<polygon class="st3" points="1432.9,913.7 1393.4,972.3 1393.4,999.4 1432.9,940.8 	"/>
	<polygon class="st3" points="1117.1,1063.6 1117.7,1064.3 1129.4,1077.2 1133.6,1081.8 1133.6,1039.1 	"/>
	<polygon class="st3" points="1176.4,975.7 1136.9,1034.2 1136.9,1085.4 1146.2,1095.7 1176.4,1050.9 	"/>
	<polygon class="st3" points="1179.6,970.8 1179.6,1046.1 1219.1,987.5 1219.1,912.3 	"/>
	<polygon class="st3" points="1304.7,785.5 1265.1,844 1265.1,919.3 1304.7,860.7 	"/>
	<polygon class="st3" points="1261.9,848.9 1222.4,907.4 1222.4,982.7 1261.9,924.1 	"/>
	<path class="st3" d="M1307.9,855.9l39.5-58.6v-44.1c-0.8,0.2-1.6,0.5-2.4,0.7c-8.8,2.7-17.4,6.1-25.8,10l-11.3,16.8V855.9z"/>
	<path class="st3" d="M1381,747.5c-0.1,0-0.2,0-0.3,0c-10.2,0.4-20.2,2.1-30.1,4.7v40.2L1381,747.5z"/>
	<polygon class="st3" points="1277,1126.2 1304.7,1085.3 1304.7,1027.6 1265.1,1086.2 1265.1,1109.1 1273,1109.1 1273,1126.2 
		1277,1126.2 	"/>
	<polygon class="st3" points="1249.7,1109.1 1261.9,1109.1 1261.9,1091 	"/>
	<polygon class="st3" points="1347.4,964.2 1307.9,1022.8 1307.9,1080.5 1347.4,1021.9 	"/>
	<polygon class="st3" points="1432.9,837.4 1393.4,896 1393.4,953.7 1432.9,895.1 	"/>
	<polygon class="st3" points="1350.7,1017.1 1390.2,958.5 1390.2,900.8 1350.7,959.4 	"/>
	<path class="st3" d="M1436.2,890.3l22.7-33.6c1.1-6.8,2-13.6,2.6-20.4c1-12.4,1.2-24.9-0.7-36.9c-0.1-0.8-0.3-1.6-0.5-2.5
		l-24.1,35.7V890.3z"/>
	<path class="st5" d="M724,1020.9c-5.1-15.4-9.5-30.9-13.5-46.5c-0.4-1.6-0.8-3.2-1.2-4.8v3.1c-1.1-4.2-2.2-8.3-3.3-12.4v-4.6
		c-0.1-0.4-0.2-0.9-0.3-1.3c-2.4-10.8-4.4-21.7-6.1-32.6c-1.9-12.3-3.4-24.7-4-37.1c-0.6-12.4-0.5-24.8,1.1-36.9
		c0.5-3.5,1.1-6.9,1.9-10.3c0.6-2.5,1.2-5,2.1-7.3c0.9-2.5,1.9-5,3.1-7.3c0.7-1.4,1.5-2.7,2.3-3.9v-0.7c1-1.8,2.1-3.5,3.3-4.9v1.4
		c3.6-3.8,8.2-6.2,13.3-6.8c1.3-0.2,2.7-0.2,4-0.2c1.4,0,2.9,0.1,4.3,0.3c2.9,0.3,5.8,0.9,8.7,1.6c3.1,0.8,6.2,1.7,9.2,2.7v-0.7
		c1.1,0.4,2.1,0.8,3.3,1.2v0.7c7.3,2.7,14.6,5.9,21.8,9.1c5.3,2.4,10.5,4.8,15.8,7.2c0.6,0.3,1.2,0.5,1.8,0.8V828
		c1.1,0.4,2.2,0.8,3.3,1.2v2.9c3,1.3,6,2.6,9,3.9c1.5,0.7,3,1.3,4.6,2c8.5,3.6,17.2,7.1,26,10.2V843c1.1,0.3,2.2,0.7,3.3,1v5.3
		c2.1,0.7,4.2,1.5,6.3,2.2c10.9,3.7,22,6.9,33.2,9.7v-5.7c1.1,0.3,2.2,0.5,3.3,0.8v5.7c5.7,1.4,11.4,2.6,17.1,3.8
		c5.4,1.1,10.8,2.1,16.2,3c1.4,0.2,2.8,0.5,4.2,0.7c0.6,0.1,1.3,0.2,1.9,0.3v-5c1.1,0.2,2.2,0.4,3.2,0.6v4.8
		c0.4,0.1,0.8,0.1,1.2,0.2c12.7,1.8,25.5,3.2,38.3,4.1v-4c1.1,0.1,2.2,0.2,3.2,0.3v3.9c5,0.3,10.1,0.6,15.1,0.8
		c4.2,0.2,8.5,0.3,12.7,0.5c3.9,0.1,7.8,0.1,11.7,0.2V873c1.1,0,2.2,0,3.2,0v3.4c7.7,0,15.4-0.1,23.1-0.3c5.5-0.2,10.9-0.4,16.4-0.8
		v-3.8c1.1-0.1,2.2-0.2,3.2-0.3v3.9c5.6-0.4,11.2-0.9,16.7-1.6c0.6-0.1,1.1-0.1,1.7-0.2c6.2-0.8,12.4-1.7,18.5-2.8
		c0.8-0.1,1.7-0.3,2.5-0.5V866c1.1-0.2,2.2-0.4,3.2-0.6v4.1c13.3-2.6,26.5-5.9,39.5-9.9v-4c1.1-0.3,2.2-0.7,3.2-1.1v4.1
		c2.5-0.8,5-1.6,7.5-2.5c10.9-3.7,21.5-8,32-12.6v-5.3c1.1-0.6,2.2-1.1,3.2-1.7v5.5c11.7-5.3,23.1-11.1,34.3-17.3
		c1.7-1,3.5-1.9,5.2-2.9v-9.1c-0.6,0.3-1.1,0.6-1.7,1c-2.4,1.4-4.8,2.7-7.3,4.1c-21.9,12-44.7,22.7-68.3,30.7
		c-23.7,8.1-48.1,13.8-73,16.8c-12.4,1.6-24.9,2.4-37.4,2.9c-12.5,0.4-25.1,0.6-37.6,0.3c-25-0.5-50.1-2.3-74.9-6.1
		c-24.8-3.7-49.3-9.4-73.1-17.1c-11.9-3.9-23.7-8.2-35.3-13c-11.6-4.7-23-9.9-34.5-14.9c-11.5-5-23.1-10-35.4-12.8
		c-3.1-0.7-6.2-1.2-9.3-1.5c-3.1-0.3-6.3-0.4-9.5,0c-3.1,0.4-6.2,1.4-9,3c-2.8,1.5-5.3,3.6-7.4,6c-4.2,4.8-6.9,10.6-8.9,16.6
		c-2,6-3.1,12.2-3.9,18.4c-1.5,12.5-1.4,25.1-0.5,37.6c1.8,25.1,6.4,49.8,12.5,74.2c5.8,23,12.9,45.7,21.2,68h0.1
		c-0.4-1.2-0.8-2.5-1.3-3.7C724.5,1022.5,724.2,1021.7,724,1020.9z"/>
	<path class="st5" d="M1261.9,796.3v-9c-13.1,8-26.2,16-39.5,23.6v9.2c8.2-4.7,16.3-9.5,24.3-14.4
		C1251.8,802.6,1256.8,799.5,1261.9,796.3z"/>
	<path class="st5" d="M1265.1,785.3v9c2.3-1.4,4.6-2.8,6.9-4.2c2.2-1.4,4.4-2.7,6.7-4.1c7.8-4.7,15.5-9.3,23.4-13.5
		c0.8-0.5,1.7-0.9,2.5-1.3v-7.1c1.1-0.5,2.2-1,3.2-1.5v6.9c1.1-0.6,2.1-1.1,3.2-1.7c2.7-1.4,5.4-2.7,8.1-3.9c8.4-3.9,17-7.3,25.8-10
		c0.8-0.2,1.6-0.5,2.4-0.7v-5.7c1.1-0.3,2.2-0.6,3.2-0.9v5.7c9.8-2.6,19.9-4.3,30.1-4.7c0.1,0,0.2,0,0.3,0c3-0.1,6.1-0.2,9.2-0.1
		V741c-0.6,0-1.2,0-1.7,0c-2.6,0-5.3,0-7.9,0.1c-12.7,0.4-25.3,2.7-37.4,6.3c-12.2,3.6-23.9,8.5-35.2,14
		c-10.8,5.3-21.2,11.2-31.5,17.3c-0.5,0.3-1.1,0.6-1.6,0.9C1271.6,781.4,1268.4,783.4,1265.1,785.3z"/>
	<path class="st5" d="M1393.4,747.5c7.9,0.4,15.8,1.4,23.5,2.9c5.6,1.2,11,3,16,5.6v-4.5c1.1,0.6,2.2,1.3,3.2,2v4.3
		c4,2.5,7.7,5.5,10.8,9.1c3.8,4.3,6.8,9.4,9.1,15c1.9,4.8,3.3,9.8,4.2,15c0.2,0.8,0.3,1.6,0.5,2.5c1.9,12.1,1.8,24.5,0.7,36.9
		c-0.6,6.8-1.5,13.6-2.6,20.4c-0.9,5.5-2,11.1-3.1,16.6c-0.7,3.4-1.5,6.8-2.3,10.1c-3.7,15.5-8.1,30.9-12.9,46.2
		c-1.4,4.5-2.9,8.9-4.3,13.3v0.2c1.8-4.9,3.5-9.8,5.1-14.7c0.6-1.9,1.3-3.8,1.9-5.7c0,0,0,0,0,0c5.3-16.1,10.2-32.4,14.1-48.9
		c2.9-12.2,5.2-24.6,6.8-37.1c1.5-12.5,2.1-25.1,0.6-37.7c-0.8-6.3-2.1-12.5-4.3-18.5c-2.2-6-5.3-11.7-9.4-16.7
		c-4.1-5-9.2-9.1-14.8-12.3c-5.6-3.2-11.7-5.4-17.9-6.9c-3.7-0.8-7.5-1.5-11.3-2c-4.5-0.6-9.1-1.1-13.6-1.3V747.5z"/>
	<path class="st3" d="M1614.5,781c-5.9-33.5-30.4-5.6-34.1-1.2c-36.2-35.3-39.9-2.8-39.9-2.8c-21.9,5.2-18.6,18.1,44.2,18.1
		c17,0,28.8-1.5,36.4-3.5c15.4-4,13.8-10.3,4.6-11.4C1622.6,779.8,1618.8,780,1614.5,781z"/>
	<path class="st5" d="M1436.2,942.9V936v-27.1v-18.6v-57.7v-74.7v-4.3c-1.1-0.7-2.1-1.4-3.2-2v4.5v81.3v57.7v18.6v27.1v13.1
		c1.1-3.2,2.2-6.4,3.2-9.5v-1.3V942.9z"/>
	<path class="st5" d="M1390.2,747.4v153.4v57.7v18.6v27.1v59.3c1.1-2.6,2.2-5.2,3.2-7.7v-56.4v-27.1v-18.6V896V747.5v-6.4V741
		c-1.1,0-2.2-0.1-3.2-0.1v0V747.4z"/>
	<path class="st5" d="M1347.4,964.2v57.7v18.6v27.1v41.5h3.2v-46.3v-27.1v-18.6v-57.7V792.5v-40.2v-5.7c-1.1,0.3-2.2,0.6-3.2,0.9
		v5.7v44.1V964.2z"/>
	<path class="st5" d="M1304.7,860.7v166.9v57.7v18.6v5.1h3.2v-9.9v-18.6v-57.7V855.9v-75.3v-11.2v-6.9c-1.1,0.5-2.2,1-3.2,1.5v7.1
		v14.3V860.7z"/>
	<path class="st5" d="M1261.9,796.3v8.8v27.1v16.7v75.3V1091v18h3.2v-22.9V919.3V844v-16.7v-27.1v-6v-9v-0.4
		c-1.1,0.6-2.2,1.2-3.2,1.9v0.5V796.3z"/>
	<path class="st5" d="M1219.1,821.9v46.6v27.1v16.7v75.3v121.5h3.2V982.7v-75.3v-16.7v-27.1v-43.6v-9.2v-0.2c-1.1,0.7-2.2,1.3-3.2,2
		v0.1V821.9z"/>
	<path class="st5" d="M1179.6,970.8v-16.7v-27.1v-85v-5.5c-1.1,0.6-2.2,1.1-3.2,1.7v5.3v88.4v27.1v16.7v75.3v58.1h3.2v-63V970.8z"/>
	<path class="st5" d="M1136.9,1017.5v-27.1V858.6v-4.1c-1.1,0.4-2.2,0.7-3.2,1.1v4v135.7v27.1v16.7v42.8l3.2,3.6v-51.2V1017.5z"/>
	<path class="st5" d="M1094.1,869.5v-4.1c-1.1,0.2-2.2,0.4-3.2,0.6v4.1v172.1c1.1,0.6,2.2,1.3,3.2,2V869.5z"/>
	<path class="st5" d="M1051.3,925.4v-27.1v-23.2v-3.9c-1.1,0.1-2.2,0.2-3.2,0.3v3.8v27.9v27.1v97.5c1.1,0.1,2.2,0.3,3.2,0.4V925.4z"
		/>
	<path class="st5" d="M1008.6,961.8v-85.4V873c-1.1,0-2.2,0-3.2,0v3.4v90.2v27.1v33.3h3.2v-38.2V961.8z"/>
	<path class="st5" d="M965.8,898.2v-23.3V871c-1.1-0.1-2.2-0.2-3.2-0.3v4V903v124h3.2v-1.8V898.2z"/>
	<path class="st5" d="M923.1,872.4v-2v-4.8c-1.1-0.2-2.2-0.4-3.2-0.6v5v7.3v89.2v60.6h3.2v-65.4V872.4z"/>
	<path class="st5" d="M880.3,935.8v-17.5v-27.1v-29.1v-5.7c-1.1-0.3-2.2-0.5-3.3-0.8v5.7v34.7v27.1v17.5v86.4h3.3v-2V935.8z"/>
	<path class="st5" d="M837.6,981.7v-27.1V849.4v-5.3c-1.1-0.3-2.2-0.7-3.3-1v5.2v111.2v27.1v17.5v23h3.3v-27.8V981.7z"/>
	<path class="st5" d="M794.8,849.3v-17.3v-2.9c-1.1-0.4-2.2-0.8-3.3-1.2v2.7v23.5v168.7v4.1h3.3v-8.9V849.3z"/>
	<path class="st5" d="M752,885.7v-72.2v-0.7c-1.1-0.4-2.2-0.8-3.3-1.2v0.7v78.2v27.1V1027h3.3V912.7V885.7z"/>
	<path class="st5" d="M709.3,814.8v-1.4c-1.1,1.4-2.2,3-3.3,4.9v0.7v135v1.8v4.6c1,4.1,2.1,8.2,3.3,12.4v-3.1v-20.4V814.8z"/>
	<path class="st3" d="M1166.1,595.7c-71.5-81.8-150-22.9-141.5,1.1c-87.8,0-149.5,35,101.1,41.9C1204.8,640.9,1272,600,1166.1,595.7
		z"/>
	<path class="st3" d="M1550.4,374.1c-79.5,0-135.3,31.7,91.5,37.9c13.3,0.4,26.3-0.6,38-2.5c50.9-8.2,76.7-33.3-1.3-36.5
		c-3.8-4.3-7.5-8.2-11.3-11.6C1605.8,305.1,1543.2,353.6,1550.4,374.1z"/>
	<path class="st3" d="M1036.1,297.3c329.5-18.7,222-131.6,72.4-113.7c-137.9-138.7-196.1-14.8-196.1-14.8
		c-29-35.9-55.9-62.1-80.5-80.5c-124.6-93.1-192.8,12.3-192.8,68.9c-82.9,24.9-82.7,57.6-29.6,85.3
		C680.8,279.6,847.3,308,1036.1,297.3z"/>
	<path class="st6" d="M509.3,798.9c140.8,0,121-44.1,67-31.5c-13.3-75.1-68.1-12.5-76.5-2.7c-81.1-79.3-89.6-6.3-89.6-6.3
		C361,770.1,368.5,798.9,509.3,798.9z"/>
	<path class="st6" d="M1721.1,906.5c-9.1-51.2-46.4-8.5-52.1-1.8c-55.2-54-61-4.3-61-4.3c-33.5,8-28.4,27.6,67.5,27.6
		C1771.3,927.9,1757.8,897.9,1721.1,906.5z"/>
	<path class="st1" d="M1499.5,1164.5c-0.4,0.1-0.8,0.1-1.2,0.1c-1.4,0-2.7-0.6-3.6-1.4c-3.3-0.1-7-0.2-10.9-0.2
		c-1,1-2.3,1.7-3.8,1.7c-0.4,0-0.8-0.1-1.2-0.1c-0.4,0.1-0.8,0.1-1.2,0.1c-1.6,0-3-0.7-4-1.9c-7.4-0.1-15.6-0.2-24.4-0.3
		c-0.9,1.3-2.5,2.2-4.3,2.2c-0.4,0-0.8-0.1-1.2-0.1c-0.4,0.1-0.8,0.1-1.2,0.1c-1.8,0-3.4-0.9-4.4-2.3c-3.1,0-6.3-0.1-9.5-0.1
		c-0.9,1.5-2.5,2.4-4.4,2.4c-0.4,0-0.8-0.1-1.2-0.1c-0.4,0.1-0.8,0.1-1.2,0.1c-1.9,0-3.5-1-4.4-2.5c-9.7-0.1-19.8-0.1-30.4-0.2
		c-0.9,1.6-2.6,2.7-4.5,2.7c-0.4,0-0.8-0.1-1.2-0.1c-0.4,0.1-0.8,0.1-1.2,0.1c-2,0-3.7-1.1-4.6-2.7c-3,0-6.1,0-9.1,0
		c-0.9,1.6-2.6,2.8-4.6,2.8c-0.4,0-0.8-0.1-1.2-0.1c-0.4,0.1-0.8,0.1-1.2,0.1c-2,0-3.7-1.1-4.6-2.8c-4.9,0-9.8,0-14.8,0
		c-2.9,0-5.8,0-8.7,0c-0.9,1.6-2.6,2.8-4.6,2.8c-0.4,0-0.8-0.1-1.2-0.1c-0.4,0.1-0.8,0.1-1.2,0.1c-2,0-3.7-1.1-4.6-2.8
		c-3.1,0-6.1,0-9.1,0c-0.9,1.6-2.6,2.7-4.6,2.7c-0.4,0-0.8-0.1-1.2-0.1c-0.4,0.1-0.8,0.1-1.2,0.1c-2,0-3.7-1.1-4.6-2.7
		c-11.4,0-22.4,0.1-32.9,0.2c-0.9,1.5-2.6,2.5-4.5,2.5c-0.4,0-0.8-0.1-1.2-0.1c-0.4,0.1-0.8,0.1-1.2,0.1c-1.9,0-3.5-1-4.4-2.5
		c-3.2,0-6.4,0.1-9.5,0.1c-0.9,1.4-2.5,2.4-4.4,2.4c-0.4,0-0.8-0.1-1.2-0.1c-0.4,0.1-0.8,0.1-1.2,0.1c-1.8,0-3.4-0.9-4.3-2.3
		c-8.7,0.1-16.8,0.2-24.3,0.3c-1,1.2-2.4,1.9-4,1.9c-0.4,0-0.8-0.1-1.2-0.1c-0.4,0.1-0.8,0.1-1.2,0.1c-1.6,0-2.9-0.7-3.9-1.8
		c-3.8,0.1-7.4,0.1-10.7,0.2c-0.9,0.9-2.3,1.5-3.7,1.5c-0.4,0-0.8-0.1-1.2-0.1c-0.4,0.1-0.8,0.1-1.2,0.1c-1.3,0-2.5-0.5-3.4-1.3
		c-13.2,0.4-20.6,0.8-20.6,1.3c0,1.5,80.9,2.8,180.7,2.8c99.8,0,180.7-1.2,180.7-2.8c0-0.4-6.2-0.8-17.2-1.2c-0.9,0.7-2,1.2-3.3,1.2
		C1500.3,1164.7,1499.9,1164.6,1499.5,1164.5z"/>
	<path class="st7" d="M989.2,1164.8c0.8,0.1,1.6,0.1,2.4,0.1c10.5,0,19.3-7.6,21.1-17.6c-12.8,0-27,0-42.2,0
		C972.2,1156.5,979.8,1163.7,989.2,1164.8z"/>
	<path class="st7" d="M916,1172.5c0.9,0.1,1.9,0.2,2.8,0.2c8.6,0,16.1-4.3,20.6-10.9c0.3-0.5,0.6-1,0.9-1.5c2.2-3.7,3.5-8,3.5-12.6
		c0-0.1,0-0.2,0-0.4c-16.1,0-32.9,0-50,0c0,0.1,0,0.2,0,0.4C893.9,1160.5,903.6,1171.1,916,1172.5z"/>
	<path class="st7" d="M1067.3,1156.1v4.8h9.1l-3.6-13.7c-0.7,0-1.5,0-2.3,0L1067.3,1156.1z"/>
	<path class="st7" d="M1071.1,1182.2c0,4.2-2.9,7.7-6.8,8.6c0.6,0.1,1.3,0.2,2,0.2c3.3,0,6.2-1.8,7.7-4.5c0.7-1.3,1.1-2.7,1.1-4.3
		c0-4.5-3.4-8.3-7.8-8.8v1.5C1069.6,1176.5,1071.1,1179.2,1071.1,1182.2z"/>
	<path class="st7" d="M1065.5,1161h-8.2v13.3c2.9,1.4,5,4.4,5,7.9c0,1.8-0.5,3.4-1.4,4.7c0.4,0.1,0.9,0.2,1.4,0.2c2.7,0,5-2.2,5-5
		v-7.3v-1.5V1161v-4.8L1065.5,1161z"/>
	<path class="st7" d="M1051.5,1173.6c3.9,0.9,6.8,4.4,6.8,8.6c0,4.2-2.9,7.7-6.8,8.6c0.6,0.1,1.3,0.2,2,0.2c1.6,0,3.1-0.4,4.4-1.2
		c1.2-0.7,2.3-1.7,3-2.9c0.9-1.4,1.4-3,1.4-4.7c0-3.5-2-6.5-5-7.9c-1.2-0.6-2.5-0.9-3.9-0.9
		C1052.8,1173.4,1052.1,1173.5,1051.5,1173.6z"/>
	<path class="st7" d="M769.1,1161h9.1l-3.6-13.7c-0.8,0-1.5,0-2.3,0l-3.2,8.8V1161z"/>
	<path class="st7" d="M771.2,1164.1c-0.7,0-1.4,0.1-2.1,0.2v0.4c5.5,1.7,9.5,6.8,9.5,12.9c0,6.4-4.5,11.7-10.4,13.1
		c1,0.2,2,0.4,3,0.4c5.8,0,10.8-3.7,12.7-8.9c0.5-1.4,0.8-2.9,0.8-4.5C784.6,1170.1,778.6,1164.1,771.2,1164.1z"/>
	<path class="st7" d="M765.1,1177.6c0,3.4-1.3,6.6-3.4,8.9c0.7,0.4,1.5,0.7,2.4,0.7c2.7,0,5-2.2,5-5v-17.5v-0.4v-3.3v-4.8l-1.7,4.8
		h-8.2v4.6v0.9C762.8,1168.8,765.1,1172.9,765.1,1177.6z"/>
	<path class="st7" d="M759.1,1177.6c0,6.4-4.5,11.7-10.4,13.1c1,0.2,2,0.4,3,0.4c2.5,0,4.7-0.7,6.7-1.8c1.2-0.7,2.4-1.6,3.3-2.7
		c2.1-2.4,3.4-5.5,3.4-8.9c0-4.7-2.4-8.8-6-11.2c-0.2-0.2-0.5-0.3-0.7-0.5c-2-1.1-4.3-1.8-6.7-1.8c-1,0-2.1,0.1-3,0.4
		C754.6,1165.9,759.1,1171.2,759.1,1177.6z"/>
	<path class="st7" d="M871.3,1161h9.1l-3.6-13.7c-0.8,0-1.5,0-2.3,0l-3.2,8.8V1161z"/>
	<path class="st7" d="M884.9,1170.6c-2.4-3.9-6.6-6.5-11.5-6.5c-0.7,0-1.4,0.1-2.1,0.2v0.4c5.5,1.7,9.5,6.8,9.5,12.9
		c0,6.4-4.5,11.7-10.4,13.1c1,0.2,2,0.4,3,0.4c5.6,0,10.4-3.4,12.4-8.3c0.6-1.6,1-3.3,1-5.1C886.8,1175,886.1,1172.6,884.9,1170.6z"
		/>
	<path class="st7" d="M861.3,1166.4c3.6,2.4,6,6.5,6,11.2c0,3.4-1.3,6.6-3.4,8.9c0.7,0.4,1.5,0.7,2.4,0.7c2.7,0,5-2.2,5-5v-17.5
		v-0.4v-3.3v-4.8l-1.7,4.8h-8.2v4.6V1166.4z"/>
	<path class="st7" d="M863.9,1186.5c2.1-2.4,3.4-5.5,3.4-8.9c0-4.7-2.4-8.8-6-11.2c-0.2-0.2-0.5-0.3-0.7-0.5c-0.5-0.3-1-0.5-1.5-0.7
		c-1.6-0.7-3.4-1.1-5.3-1.1c-1,0-2.1,0.1-3,0.4c6,1.4,10.4,6.7,10.4,13.1s-4.5,11.7-10.4,13.1c1,0.2,2,0.4,3,0.4
		c2.5,0,4.7-0.7,6.7-1.8C861.8,1188.5,862.9,1187.6,863.9,1186.5z"/>
	<path class="st6" d="M817.7,1096.8c10.4,0,12.2,12.7,12.2,12.7c0,11.4-10.7,17.6-10.7,17.6h268c34.5,0,57.5-0.9,65.5-8.8
		c1.6-7.5-0.2-15.7-5.9-22l-0.6-0.7l-9.3-10.3l-3.2-3.6l-4.2-4.6h-4.6l3.4,3.9l-3.5,2.9l-5.9-6.9h-26.4l3.5,4.1l-3,2.6l-5.7-6.7
		h-1.6c-17,0-34.3-5.8-34.3-12.9h24.9l-2.9-3.4l3-2.6l5.1,5.9h26.4l-2.7-3.2l3.5-2.9l5.2,6.1h3.9l-0.6-0.7l-0.3-0.4
		c-2-2.2-4.2-4.4-6.3-6.4c-1.8-1.7-3.6-3.3-5.5-4.8H554.1c0,0,0,0,0,0c0,0.4,0,0.9-0.1,1.4c0,0.8-0.1,1.6-0.1,2.5
		c0,0.6,0,1.2-0.1,1.8c0,0.2-0.1,0.4-0.1,0.6c0,0.4-0.1,0.8-0.2,1.1c0,0.2-0.1,0.5-0.2,0.7c-0.1,0.3-0.2,0.6-0.2,1
		c-0.1,0.3-0.2,0.5-0.3,0.8c-0.1,0.3-0.2,0.6-0.3,0.8c-0.1,0.3-0.2,0.5-0.4,0.8c-0.1,0.2-0.2,0.5-0.4,0.7c-0.1,0.3-0.3,0.6-0.5,0.8
		c-0.1,0.2-0.2,0.4-0.4,0.6c-0.2,0.3-0.4,0.6-0.6,0.9c-0.1,0.1-0.2,0.3-0.3,0.4c-0.3,0.3-0.5,0.6-0.8,0.9c0,0,0,0,0,0
		c-1.5,1.6-3.3,3-5.5,4c0,0,0,0,0,0c-0.5,0.3-1.1,0.5-1.6,0.7c0,0-0.1,0-0.1,0.1c-0.5,0.2-1.1,0.4-1.7,0.6c-0.1,0-0.1,0-0.2,0.1
		c-0.6,0.2-1.2,0.3-1.8,0.5c0,0-0.1,0-0.1,0c-1.2,0.3-2.5,0.4-3.8,0.5c0,0,0,0,0,0c-0.1,0-0.2,0-0.3,0l-0.2,0
		c-0.6,0-1.2,0.1-1.9,0.1c0,0-0.2,0-0.6,0c-0.4,0-1-0.1-1.8-0.1c-0.3,0-0.5,0-0.8-0.1c-0.1,0-0.3,0-0.4,0c-0.8-0.1-1.8-0.1-2.9-0.2
		c-0.3,0-0.6-0.1-1-0.1c-0.6-0.1-1.3-0.1-2-0.2c-1.5-0.1-3.1-0.3-4.8-0.4c-2.3-0.2-4.7-0.4-7.4-0.6c-0.4,0-0.8-0.1-1.2-0.1
		c-5.6-0.5-11.9-1-18.7-1.6c-0.8-0.1-1.6-0.1-2.4-0.2c-0.1,0-0.2,0-0.3,0c-1.1-0.1-2.1-0.2-3.2-0.3c-3.2-0.3-6.4-0.5-9.7-0.8
		c-1.6-0.1-3.2-0.3-4.8-0.4c-3.2-0.3-6.4-0.5-9.6-0.8c-1.3-0.1-2.6-0.2-3.9-0.3c-0.4,0-0.9-0.1-1.3-0.1c-1.1-0.1-2.2-0.2-3.3-0.3
		c9.6,11.9,22.9,22.9,38,32.6L817.7,1096.8z M850.9,1080.8v-5.5c0-1.7,1.4-3.1,3.1-3.1h1c1.7,0,3.1,1.4,3.1,3.1v5.5
		c0,1.7-1.4,3.1-3.1,3.1h-1C852.3,1083.9,850.9,1082.5,850.9,1080.8z M943.6,1083.9c-1.7,0-3.1-1.4-3.1-3.1v-5.5
		c0-1.7,1.4-3.1,3.1-3.1h1c1.7,0,3.1,1.4,3.1,3.1v5.5c0,1.7-1.4,3.1-3.1,3.1H943.6z M968.9,1070.8c0-4.8,3.9-8.7,8.7-8.7h2.6
		c4.8,0,8.7,3.9,8.7,8.7v14.5c0,4.8-3.9,8.7-8.7,8.7h-2.6c-4.8,0-8.7-3.9-8.7-8.7V1070.8z M927.7,1075.3c0-1.7,1.4-3.1,3.1-3.1h1
		c1.7,0,3.1,1.4,3.1,3.1v5.5c0,1.7-1.4,3.1-3.1,3.1h-1c-1.7,0-3.1-1.4-3.1-3.1V1075.3z M914.9,1075.3c0-1.7,1.4-3.1,3.1-3.1h1
		c1.7,0,3.1,1.4,3.1,3.1v5.5c0,1.7-1.4,3.1-3.1,3.1h-1c-1.7,0-3.1-1.4-3.1-3.1V1075.3z M902.1,1075.3c0-1.7,1.4-3.1,3.1-3.1h1
		c1.7,0,3.1,1.4,3.1,3.1v5.5c0,1.7-1.4,3.1-3.1,3.1h-1c-1.7,0-3.1-1.4-3.1-3.1V1075.3z M889.3,1075.3c0-1.7,1.4-3.1,3.1-3.1h1
		c1.7,0,3.1,1.4,3.1,3.1v5.5c0,1.7-1.4,3.1-3.1,3.1h-1c-1.7,0-3.1-1.4-3.1-3.1V1075.3z M876.5,1075.3c0-1.7,1.4-3.1,3.1-3.1h1
		c1.7,0,3.1,1.4,3.1,3.1v5.5c0,1.7-1.4,3.1-3.1,3.1h-1c-1.7,0-3.1-1.4-3.1-3.1V1075.3z M863.7,1075.3c0-1.7,1.4-3.1,3.1-3.1h1
		c1.7,0,3.1,1.4,3.1,3.1v5.5c0,1.7-1.4,3.1-3.1,3.1h-1c-1.7,0-3.1-1.4-3.1-3.1V1075.3z M838.1,1075.3c0-1.7,1.4-3.1,3.1-3.1h1
		c1.7,0,3.1,1.4,3.1,3.1v5.5c0,1.7-1.4,3.1-3.1,3.1h-1c-1.7,0-3.1-1.4-3.1-3.1V1075.3z M825.3,1075.3c0-1.7,1.4-3.1,3.1-3.1h1
		c1.7,0,3.1,1.4,3.1,3.1v5.5c0,1.7-1.4,3.1-3.1,3.1h-1c-1.7,0-3.1-1.4-3.1-3.1V1075.3z M758.5,1080.8v-5.5c0-1.7,1.4-3.1,3.1-3.1h1
		c1.7,0,3.1,1.4,3.1,3.1v5.5c0,1.7-1.4,3.1-3.1,3.1h-1C759.9,1083.9,758.5,1082.5,758.5,1080.8z M791.3,1080.8
		c0,1.7-1.4,3.1-3.1,3.1h-1c-1.7,0-3.1-1.4-3.1-3.1v-5.5c0-1.7,1.4-3.1,3.1-3.1h1c1.7,0,3.1,1.4,3.1,3.1V1080.8z M812.5,1075.3
		c0-1.7,1.4-3.1,3.1-3.1h1c1.7,0,3.1,1.4,3.1,3.1v5.5c0,1.7-1.4,3.1-3.1,3.1h-1c-1.7,0-3.1-1.4-3.1-3.1V1075.3z M774.4,1072.2h1
		c1.7,0,3.1,1.4,3.1,3.1v5.5c0,1.7-1.4,3.1-3.1,3.1h-1c-1.7,0-3.1-1.4-3.1-3.1v-5.5C771.3,1073.6,772.7,1072.2,774.4,1072.2z
		 M745.7,1080.8v-5.5c0-1.7,1.4-3.1,3.1-3.1h1c1.7,0,3.1,1.4,3.1,3.1v5.5c0,1.7-1.4,3.1-3.1,3.1h-1
		C747.1,1083.9,745.7,1082.5,745.7,1080.8z M732.9,1075.3c0-1.7,1.4-3.1,3.1-3.1h1c1.7,0,3.1,1.4,3.1,3.1v5.5c0,1.7-1.4,3.1-3.1,3.1
		h-1c-1.7,0-3.1-1.4-3.1-3.1V1075.3z M720.1,1075.3c0-1.7,1.4-3.1,3.1-3.1h1c1.7,0,3.1,1.4,3.1,3.1v5.5c0,1.7-1.4,3.1-3.1,3.1h-1
		c-1.7,0-3.1-1.4-3.1-3.1V1075.3z M707.3,1075.3c0-1.7,1.4-3.1,3.1-3.1h1c1.7,0,3.1,1.4,3.1,3.1v5.5c0,1.7-1.4,3.1-3.1,3.1h-1
		c-1.7,0-3.1-1.4-3.1-3.1V1075.3z M640.2,1085.3c0,4.8-3.9,8.7-8.7,8.7h-2.6c-4.8,0-8.7-3.9-8.7-8.7v-14.5c0-4.8,3.9-8.7,8.7-8.7
		h2.6c4.8,0,8.7,3.9,8.7,8.7V1085.3z M663.3,1080.8c0,1.7-1.4,3.1-3.1,3.1h-1c-1.7,0-3.1-1.4-3.1-3.1v-5.5c0-1.7,1.4-3.1,3.1-3.1h1
		c1.7,0,3.1,1.4,3.1,3.1V1080.8z M676.1,1080.8c0,1.7-1.4,3.1-3.1,3.1h-1c-1.7,0-3.1-1.4-3.1-3.1v-5.5c0-1.7,1.4-3.1,3.1-3.1h1
		c1.7,0,3.1,1.4,3.1,3.1V1080.8z M688.9,1080.8c0,1.7-1.4,3.1-3.1,3.1h-1c-1.7,0-3.1-1.4-3.1-3.1v-5.5c0-1.7,1.4-3.1,3.1-3.1h1
		c1.7,0,3.1,1.4,3.1,3.1V1080.8z M701.7,1080.8c0,1.7-1.4,3.1-3.1,3.1h-1c-1.7,0-3.1-1.4-3.1-3.1v-5.5c0-1.7,1.4-3.1,3.1-3.1h1
		c1.7,0,3.1,1.4,3.1,3.1V1080.8z"/>
	<path class="st6" d="M631.5,1063.1h-2.6c-4.3,0-7.7,3.5-7.7,7.7v14.5c0,4.3,3.5,7.7,7.7,7.7h2.6c4.3,0,7.7-3.5,7.7-7.7v-14.5
		C639.3,1066.6,635.8,1063.1,631.5,1063.1z M633.8,1080.8c0,1.7-1.4,3.1-3.1,3.1h-1c-1.7,0-3.1-1.4-3.1-3.1v-5.5
		c0-1.7,1.4-3.1,3.1-3.1h1c1.7,0,3.1,1.4,3.1,3.1V1080.8z"/>
	<path class="st6" d="M977.6,1093h2.6c4.3,0,7.7-3.5,7.7-7.7v-14.5c0-4.3-3.5-7.7-7.7-7.7h-2.6c-4.3,0-7.7,3.5-7.7,7.7v14.5
		C969.9,1089.6,973.3,1093,977.6,1093z M975.3,1075.3c0-1.7,1.4-3.1,3.1-3.1h1c1.7,0,3.1,1.4,3.1,3.1v5.5c0,1.7-1.4,3.1-3.1,3.1h-1
		c-1.7,0-3.1-1.4-3.1-3.1V1075.3z"/>
	<path class="st7" d="M1076.3,1064.3h-24.9c0,7.1,17.3,12.9,34.3,12.9h1.6L1076.3,1064.3z"/>
	<polygon class="st7" points="1107.8,1064.3 1081.4,1064.3 1092.5,1077.2 1118.9,1077.2 	"/>
	<polygon class="st7" points="1113.8,1064.3 1124.8,1077.2 1129.4,1077.2 1117.7,1064.3 	"/>
	<path class="st3" d="M567,1028.3c-0.3,0.2-0.6,0.4-0.9,0.5c-0.3,0.2-0.5,0.3-0.8,0.5c-0.2,0.1-0.4,0.3-0.6,0.4
		c-0.3,0.2-0.5,0.4-0.8,0.6c-0.2,0.1-0.3,0.3-0.5,0.4c-0.3,0.2-0.6,0.5-0.9,0.7c-0.1,0.1-0.2,0.2-0.3,0.3c-1.1,1-2.1,2-2.9,3.1
		c0,0,0,0,0,0h516.8c-7.9-3.2-16.2-5.4-24.8-6.7c-1.1-0.2-2.2-0.3-3.2-0.4c-4.3-0.5-8.6-0.8-13-0.8h-26.5h-3.2h-2.9h-19.5h-17h-3.2
		h-39.5h-3.2h-39.5h-3.3h-39.5h-3.3h-15.5H807h-12.2h-3.3h-2.8H752h-3.3H726h-0.1h-11H569.2c-0.5,0.3-1.1,0.6-1.6,0.9
		C567.5,1028.1,567.3,1028.2,567,1028.3z"/>
	<path class="st3" d="M1094.1,1044.2c-1.1-0.7-2.2-1.3-3.2-2c-4.7-2.8-9.7-5.2-14.7-7.2H559.4c0,0,0,0,0,0c-0.4,0.5-0.7,1-1,1.5
		c0,0,0,0,0,0.1c-0.3,0.5-0.6,1-0.9,1.6c0,0,0,0,0,0.1c-0.3,0.6-0.6,1.2-0.8,1.8c0,0,0,0,0,0c-1.3,3.2-2.1,7-2.4,12c0,0,0,0,0,0
		h550.8c-2-1.7-4.2-3.3-6.3-4.8C1097.1,1046.2,1095.6,1045.1,1094.1,1044.2z"/>
	<path class="st8" d="M529.7,1074.2c0.8,0.1,1.4,0.1,1.8,0.1c0.4,0,0.6,0,0.6,0c0.6,0,1.2,0,1.9-0.1L529.7,1074.2z"/>
	<path class="st8" d="M536.4,1074.1c0.7-0.1,1.3-0.2,2-0.3c0,0,0.1,0,0.1,0c0.6-0.1,1.2-0.3,1.8-0.5c0.1,0,0.1,0,0.2-0.1
		c0.6-0.2,1.1-0.4,1.7-0.6c0,0,0.1,0,0.1-0.1c0.6-0.2,1.1-0.4,1.6-0.7c0,0,0,0,0,0c2.2-1.1,4-2.4,5.5-4c0,0,0,0,0,0
		c0.3-0.3,0.5-0.6,0.8-0.9c0.1-0.1,0.2-0.3,0.3-0.4c0.2-0.3,0.4-0.6,0.6-0.9c0.1-0.2,0.3-0.4,0.4-0.6c0.2-0.3,0.3-0.6,0.5-0.8
		c0.1-0.2,0.2-0.5,0.4-0.7c0.1-0.3,0.2-0.5,0.4-0.8c0.1-0.3,0.2-0.6,0.3-0.8c0.1-0.3,0.2-0.5,0.3-0.8c0.1-0.3,0.2-0.6,0.2-1
		c0.1-0.2,0.1-0.5,0.2-0.7c0.1-0.4,0.1-0.8,0.2-1.1c0-0.2,0.1-0.4,0.1-0.6c0.1-0.6,0.1-1.2,0.1-1.8c0-0.9,0-1.7,0.1-2.5
		c0-0.5,0-0.9,0.1-1.4c0,0,0,0,0,0c0,0,0,0,0,0c0.3-5,1.1-8.9,2.4-12c0,0,0,0,0,0c0.3-0.6,0.5-1.2,0.8-1.8c0,0,0,0,0-0.1
		c0.3-0.6,0.6-1.1,0.9-1.6c0,0,0,0,0-0.1c0.3-0.5,0.7-1,1-1.5c0,0,0,0,0,0c0,0,0,0,0,0c0.9-1.1,1.9-2.2,2.9-3.1
		c0.1-0.1,0.2-0.2,0.3-0.3c0.3-0.2,0.6-0.5,0.9-0.7c0.2-0.1,0.3-0.3,0.5-0.4c0.3-0.2,0.5-0.4,0.8-0.6c0.2-0.1,0.4-0.3,0.6-0.4
		c0.3-0.2,0.5-0.3,0.8-0.5c0.3-0.2,0.6-0.4,0.9-0.5c0.2-0.1,0.4-0.3,0.6-0.4c0.5-0.3,1-0.6,1.6-0.9L458.9,903.7h-3.8L565.3,1027
		h-110l0.4,2.1c-8.6,4.1-13.6,13.5-12.1,22.9c48.8,0,105.3,0,105.3,0C548.8,1062.4,544.5,1072.5,536.4,1074.1z"/>
	<path class="st9" d="M534.1,1074.3c0.1,0,0.2,0,0.3,0c-0.2,0-0.3,0-0.5,0L534.1,1074.3z"/>
	<path class="st9" d="M456.7,1068.1c1.3,0.1,2.6,0.2,3.9,0.3c3.2,0.3,6.4,0.5,9.6,0.8c1.6,0.1,3.2,0.3,4.8,0.4
		c3.3,0.3,6.6,0.5,9.7,0.8c1.1,0.1,2.1,0.2,3.2,0.3c0.1,0,0.2,0,0.3,0c0.8,0.1,1.6,0.1,2.4,0.2c6.8,0.6,13.2,1.1,18.7,1.6
		c0.4,0,0.8,0.1,1.2,0.1c2.7,0.2,5.1,0.4,7.4,0.6c1.7,0.1,3.3,0.3,4.8,0.4c0.7,0.1,1.3,0.1,2,0.2c0.3,0,0.7,0.1,1,0.1
		c1.1,0.1,2,0.2,2.9,0.2c0.1,0,0.3,0,0.4,0c0.3,0,0.6,0,0.8,0.1l4.2,0.1c0.2,0,0.3,0,0.5,0c0,0,0,0,0,0c0.1,0,0.2,0,0.3,0
		c0.5,0,1-0.1,1.6-0.2c8.2-1.6,12.4-11.7,12.4-22.1c0,2.7-2.6,3.9-2.6,3.9H444.5h-78c0,4,6.6,5.5,13.6,6c3.3,0.2,37.1,3,72.1,5.9
		c1.1,0.1,2.2,0.2,3.3,0.3C455.8,1068,456.3,1068.1,456.7,1068.1z"/>
	<polygon class="st6" points="1113.8,1064.3 1108.6,1058.2 1105.1,1061.1 1107.8,1064.3 1118.9,1077.2 1124.8,1084.1 1128.2,1081.2 
		1124.8,1077.2 	"/>
	<polygon class="st6" points="1081.4,1064.3 1076.4,1058.4 1073.4,1060.9 1076.3,1064.3 1087.3,1077.2 1093,1083.9 1096,1081.4 
		1092.5,1077.2 	"/>
	<path class="st2" d="M534.8,1109.5h295.1c0,0-1.7-12.7-12.2-12.7l-327.7,3.5c-71.1,0-220.3,0-227.6,0c-9.7,0-11.2,4.5-11.2,9.2
		h254.3H534.8z"/>
	<path class="st7" d="M947.7,1080.8v-5.5c0-1.7-1.4-3.1-3.1-3.1h-1c-1.7,0-3.1,1.4-3.1,3.1v5.5c0,1.7,1.4,3.1,3.1,3.1h1
		C946.3,1083.9,947.7,1082.5,947.7,1080.8z"/>
	<path class="st7" d="M930.8,1083.9h1c1.7,0,3.1-1.4,3.1-3.1v-5.5c0-1.7-1.4-3.1-3.1-3.1h-1c-1.7,0-3.1,1.4-3.1,3.1v5.5
		C927.7,1082.5,929.1,1083.9,930.8,1083.9z"/>
	<path class="st7" d="M918,1083.9h1c1.7,0,3.1-1.4,3.1-3.1v-5.5c0-1.7-1.4-3.1-3.1-3.1h-1c-1.7,0-3.1,1.4-3.1,3.1v5.5
		C914.9,1082.5,916.3,1083.9,918,1083.9z"/>
	<path class="st7" d="M905.2,1083.9h1c1.7,0,3.1-1.4,3.1-3.1v-5.5c0-1.7-1.4-3.1-3.1-3.1h-1c-1.7,0-3.1,1.4-3.1,3.1v5.5
		C902.1,1082.5,903.5,1083.9,905.2,1083.9z"/>
	<path class="st7" d="M892.4,1083.9h1c1.7,0,3.1-1.4,3.1-3.1v-5.5c0-1.7-1.4-3.1-3.1-3.1h-1c-1.7,0-3.1,1.4-3.1,3.1v5.5
		C889.3,1082.5,890.7,1083.9,892.4,1083.9z"/>
	<path class="st7" d="M879.6,1083.9h1c1.7,0,3.1-1.4,3.1-3.1v-5.5c0-1.7-1.4-3.1-3.1-3.1h-1c-1.7,0-3.1,1.4-3.1,3.1v5.5
		C876.5,1082.5,877.9,1083.9,879.6,1083.9z"/>
	<path class="st7" d="M866.8,1083.9h1c1.7,0,3.1-1.4,3.1-3.1v-5.5c0-1.7-1.4-3.1-3.1-3.1h-1c-1.7,0-3.1,1.4-3.1,3.1v5.5
		C863.7,1082.5,865.1,1083.9,866.8,1083.9z"/>
	<path class="st7" d="M855,1083.9c1.7,0,3.1-1.4,3.1-3.1v-5.5c0-1.7-1.4-3.1-3.1-3.1h-1c-1.7,0-3.1,1.4-3.1,3.1v5.5
		c0,1.7,1.4,3.1,3.1,3.1H855z"/>
	<path class="st7" d="M841.2,1083.9h1c1.7,0,3.1-1.4,3.1-3.1v-5.5c0-1.7-1.4-3.1-3.1-3.1h-1c-1.7,0-3.1,1.4-3.1,3.1v5.5
		C838.1,1082.5,839.5,1083.9,841.2,1083.9z"/>
	<path class="st7" d="M828.4,1083.9h1c1.7,0,3.1-1.4,3.1-3.1v-5.5c0-1.7-1.4-3.1-3.1-3.1h-1c-1.7,0-3.1,1.4-3.1,3.1v5.5
		C825.3,1082.5,826.7,1083.9,828.4,1083.9z"/>
	<path class="st7" d="M815.6,1083.9h1c1.7,0,3.1-1.4,3.1-3.1v-5.5c0-1.7-1.4-3.1-3.1-3.1h-1c-1.7,0-3.1,1.4-3.1,3.1v5.5
		C812.5,1082.5,813.9,1083.9,815.6,1083.9z"/>
	<path class="st7" d="M788.2,1072.2h-1c-1.7,0-3.1,1.4-3.1,3.1v5.5c0,1.7,1.4,3.1,3.1,3.1h1c1.7,0,3.1-1.4,3.1-3.1v-5.5
		C791.3,1073.6,789.9,1072.2,788.2,1072.2z"/>
	<path class="st7" d="M771.3,1080.8c0,1.7,1.4,3.1,3.1,3.1h1c1.7,0,3.1-1.4,3.1-3.1v-5.5c0-1.7-1.4-3.1-3.1-3.1h-1
		c-1.7,0-3.1,1.4-3.1,3.1V1080.8z"/>
	<path class="st7" d="M762.6,1083.9c1.7,0,3.1-1.4,3.1-3.1v-5.5c0-1.7-1.4-3.1-3.1-3.1h-1c-1.7,0-3.1,1.4-3.1,3.1v5.5
		c0,1.7,1.4,3.1,3.1,3.1H762.6z"/>
	<path class="st7" d="M748.8,1083.9h1c1.7,0,3.1-1.4,3.1-3.1v-5.5c0-1.7-1.4-3.1-3.1-3.1h-1c-1.7,0-3.1,1.4-3.1,3.1v5.5
		C745.7,1082.5,747.1,1083.9,748.8,1083.9z"/>
	<path class="st7" d="M736,1083.9h1c1.7,0,3.1-1.4,3.1-3.1v-5.5c0-1.7-1.4-3.1-3.1-3.1h-1c-1.7,0-3.1,1.4-3.1,3.1v5.5
		C732.9,1082.5,734.3,1083.9,736,1083.9z"/>
	<path class="st7" d="M723.2,1083.9h1c1.7,0,3.1-1.4,3.1-3.1v-5.5c0-1.7-1.4-3.1-3.1-3.1h-1c-1.7,0-3.1,1.4-3.1,3.1v5.5
		C720.1,1082.5,721.5,1083.9,723.2,1083.9z"/>
	<path class="st7" d="M710.4,1083.9h1c1.7,0,3.1-1.4,3.1-3.1v-5.5c0-1.7-1.4-3.1-3.1-3.1h-1c-1.7,0-3.1,1.4-3.1,3.1v5.5
		C707.3,1082.5,708.7,1083.9,710.4,1083.9z"/>
	<path class="st7" d="M698.6,1072.2h-1c-1.7,0-3.1,1.4-3.1,3.1v5.5c0,1.7,1.4,3.1,3.1,3.1h1c1.7,0,3.1-1.4,3.1-3.1v-5.5
		C701.7,1073.6,700.3,1072.2,698.6,1072.2z"/>
	<path class="st7" d="M685.8,1072.2h-1c-1.7,0-3.1,1.4-3.1,3.1v5.5c0,1.7,1.4,3.1,3.1,3.1h1c1.7,0,3.1-1.4,3.1-3.1v-5.5
		C688.9,1073.6,687.5,1072.2,685.8,1072.2z"/>
	<path class="st7" d="M673,1072.2h-1c-1.7,0-3.1,1.4-3.1,3.1v5.5c0,1.7,1.4,3.1,3.1,3.1h1c1.7,0,3.1-1.4,3.1-3.1v-5.5
		C676.1,1073.6,674.7,1072.2,673,1072.2z"/>
	<path class="st7" d="M660.2,1072.2h-1c-1.7,0-3.1,1.4-3.1,3.1v5.5c0,1.7,1.4,3.1,3.1,3.1h1c1.7,0,3.1-1.4,3.1-3.1v-5.5
		C663.3,1073.6,661.9,1072.2,660.2,1072.2z"/>
	<path class="st7" d="M978.4,1083.9h1c1.7,0,3.1-1.4,3.1-3.1v-5.5c0-1.7-1.4-3.1-3.1-3.1h-1c-1.7,0-3.1,1.4-3.1,3.1v5.5
		C975.3,1082.5,976.7,1083.9,978.4,1083.9z"/>
	<path class="st7" d="M630.7,1072.2h-1c-1.7,0-3.1,1.4-3.1,3.1v5.5c0,1.7,1.4,3.1,3.1,3.1h1c1.7,0,3.1-1.4,3.1-3.1v-5.5
		C633.8,1073.6,632.4,1072.2,630.7,1072.2z"/>
	<path class="st6" d="M546.2,1055.8c0,0,2.6-1.2,2.6-3.9c0,0-56.5,0-105.3,0c-35.5,0-66.9,0-69.4,0c-5.8,0-7.7,1.1-7.7,3.9h78H546.2
		z"/>
	<polygon class="st9" points="455.1,903.7 434.3,903.7 455.3,1027 455.3,1027 565.3,1027 	"/>
	<path class="st7" d="M707.1,1122.8c-13.8,0-24.9,11.2-24.9,24.9h-0.1v0c0,12.9,9.7,23.4,22.2,24.8c0.9,0.1,1.9,0.2,2.8,0.2
		c13.8,0,25-11.2,25-25v0H732C732,1133.9,720.8,1122.8,707.1,1122.8z"/>
	<path class="st6" d="M707.1,1118.3c-6.3,0-12.1,2-16.8,5.3c-7.5,5.3-12.5,14.1-12.5,24h4.3h0.1c0-13.8,11.2-24.9,24.9-24.9
		c13.8,0,24.9,11.2,24.9,24.9h0.1h4.3c0-0.1,0-0.2,0-0.4C736.2,1131.3,723.2,1118.3,707.1,1118.3z"/>
	<path class="st7" d="M596.6,1143.5L596.6,1143.5c-0.1-11.8-9.6-21.4-21.4-21.4c-11.8,0-21.4,9.6-21.4,21.4h-0.1v0
		c0,11,8.3,20.1,19,21.3c0.8,0.1,1.6,0.1,2.4,0.1C587,1164.9,596.6,1155.3,596.6,1143.5C596.6,1143.5,596.6,1143.5,596.6,1143.5
		L596.6,1143.5z"/>
	<path class="st6" d="M550,1143.5h3.7h0.1c0-11.8,9.6-21.4,21.4-21.4c11.8,0,21.4,9.6,21.4,21.4h0.1h3.7c0-13.9-11.3-25.1-25.1-25.1
		c-5.4,0-10.3,1.7-14.4,4.6C554.2,1127.5,550,1135,550,1143.5z"/>
	<polygon class="st10" points="1273,1134.7 1273,1126.2 1273,1109.1 1265.1,1109.1 1261.9,1109.1 1249.7,1109.1 1222.4,1109.1 
		1219.1,1109.1 1195.2,1109.1 1195.2,1148.4 1198.4,1148.4 1273,1148.4 	"/>
	<polygon class="st11" points="1195.2,1109.1 1179.6,1109.1 1176.4,1109.1 1168.4,1109.1 1168.4,1126.2 1168.4,1135.1 
		1168.4,1148.4 1195.2,1148.4 	"/>
	<polygon class="st12" points="1248.5,1153.4 1251.5,1153.4 1251.5,1153.4 1276.4,1153.4 1276.4,1148.4 1273,1148.4 1198.4,1148.4 
		1198.4,1153.4 1198.5,1153.4 1198.5,1153.4 1248.5,1153.4 	"/>
	<path class="st7" d="M1257.1,1159.4c0-2.5,1.7-4.5,4-5.1c-0.4-0.1-0.8-0.1-1.2-0.1c-2.4,0-4.4,1.6-5,3.8h1.3v2.9h-1.3
		c0.1,0.5,0.3,0.9,0.6,1.3c0.9,1.5,2.5,2.5,4.4,2.5c0.4,0,0.8-0.1,1.2-0.1C1258.8,1164,1257.1,1161.9,1257.1,1159.4z"/>
	<path class="st7" d="M1240.5,1154.3c-0.4-0.1-0.8-0.1-1.2-0.1c-2.4,0-4.4,1.6-5,3.8h2.4C1237.2,1156.2,1238.7,1154.8,1240.5,1154.3
		z"/>
	<path class="st7" d="M1236.7,1160.9h-2.4c0.2,0.5,0.4,1,0.7,1.5c0.9,1.4,2.5,2.3,4.3,2.3c0.4,0,0.8-0.1,1.2-0.1
		C1238.7,1164.1,1237.2,1162.7,1236.7,1160.9z"/>
	<path class="st7" d="M1248.5,1159.4v-1.5h-1.9h-10h-2.4h-22.6c0.1,0.5,0.2,1,0.2,1.5c0,0.5-0.1,1-0.2,1.5h22.6h2.4h10h8.3h1.3v-2.9
		h-1.3h-3.5v1.5H1248.5z"/>
	<path class="st7" d="M1201.5,1159.4c0-2.5,1.7-4.5,4-5.1c-0.4-0.1-0.8-0.1-1.2-0.1c-2.4,0-4.4,1.6-5,3.8h1.3v2.9h-1.3
		c0.2,0.7,0.6,1.4,1.1,2c1,1.1,2.3,1.8,3.9,1.8c0.4,0,0.8-0.1,1.2-0.1C1203.2,1164,1201.5,1161.9,1201.5,1159.4z"/>
	<path class="st7" d="M1184.9,1164.5c-2.3-0.5-4-2.6-4-5.1s1.7-4.5,4-5.1c-0.4-0.1-0.8-0.1-1.2-0.1c-2.9,0-5.2,2.3-5.2,5.2
		c0,1.6,0.7,3,1.8,3.9c0.9,0.8,2.1,1.3,3.4,1.3C1184.1,1164.7,1184.5,1164.6,1184.9,1164.5z"/>
	<polygon class="st7" points="1186.1,1158 1186.1,1160.9 1191.1,1160.9 1199.4,1160.9 1200.6,1160.9 1200.6,1158 1199.4,1158 
		1198.5,1158 1198.5,1159.4 1195.5,1159.4 1195.5,1158 1191.1,1158 	"/>
	<polygon class="st7" points="1198.5,1159.4 1198.5,1158 1198.5,1153.4 1198.5,1153.4 1198.4,1153.4 1198.4,1153.4 1195.5,1153.4 
		1195.5,1158 1195.5,1159.4 	"/>
	<polygon class="st7" points="1248.5,1153.4 1248.5,1153.4 1248.5,1158 1248.5,1159.4 1251.5,1159.4 1251.5,1158 1251.5,1153.4 
		1251.5,1153.4 	"/>
	<polygon class="st10" points="1350.7,1109.1 1347.4,1109.1 1319.4,1109.1 1315.7,1109.1 1315.7,1148.4 1318.8,1148.4 
		1393.4,1148.4 1393.4,1133.6 1393.4,1125.8 1393.4,1109.1 1380.5,1109.1 1370.6,1109.1 	"/>
	<polygon class="st11" points="1315.7,1109.1 1307.9,1109.1 1304.7,1109.1 1301.2,1109.1 1288.8,1109.1 1288.8,1126.2 
		1288.8,1134.6 1288.8,1148.4 1315.7,1148.4 	"/>
	<polygon class="st12" points="1394.3,1150.2 1396.9,1150.2 1396.9,1148.4 1393.4,1148.4 1318.8,1148.4 1318.8,1153.4 
		1318.9,1153.4 1318.9,1153.4 1369,1153.4 1369,1153.4 1371.9,1153.4 1371.9,1153.4 1396.9,1153.4 1396.9,1151.7 1394.3,1151.7 	"/>
	<path class="st7" d="M1377.5,1159.4c0-2.5,1.7-4.5,4-5.1c-0.4-0.1-0.8-0.1-1.2-0.1c-2.4,0-4.4,1.6-5,3.8h1.3v2.9h-1.3
		c0.1,0.4,0.2,0.7,0.4,1c0.9,1.6,2.6,2.7,4.6,2.7c0.4,0,0.8-0.1,1.2-0.1C1379.3,1164,1377.5,1161.9,1377.5,1159.4z"/>
	<path class="st7" d="M1361,1154.3c-0.4-0.1-0.8-0.1-1.2-0.1c-2.4,0-4.4,1.6-5,3.8h2.4C1357.7,1156.2,1359.1,1154.8,1361,1154.3z"/>
	<path class="st7" d="M1357.1,1160.9h-2.4c0.1,0.3,0.2,0.7,0.4,1c0.9,1.6,2.6,2.8,4.6,2.8c0.4,0,0.8-0.1,1.2-0.1
		C1359.1,1164.1,1357.7,1162.7,1357.1,1160.9z"/>
	<path class="st7" d="M1369,1159.4v-1.5h-1.9h-10h-2.4h-22.6c0.1,0.5,0.2,1,0.2,1.5c0,0.5-0.1,1-0.2,1.5h22.6h2.4h10h8.3h1.3v-2.9
		h-1.3h-3.5v1.5H1369z"/>
	<path class="st7" d="M1322,1159.4c0-2.5,1.7-4.5,4-5.1c-0.4-0.1-0.8-0.1-1.2-0.1c-2.4,0-4.4,1.6-5,3.8h1.3v2.9h-1.3
		c0.1,0.3,0.2,0.7,0.4,1c0.9,1.6,2.6,2.8,4.6,2.8c0.4,0,0.8-0.1,1.2-0.1C1323.7,1164,1322,1161.9,1322,1159.4z"/>
	<path class="st7" d="M1301.3,1159.4c0-2.5,1.7-4.5,4-5.1c-0.4-0.1-0.8-0.1-1.2-0.1c-2.9,0-5.2,2.3-5.2,5.2c0,0.9,0.3,1.8,0.7,2.5
		c0.9,1.6,2.6,2.7,4.6,2.7c0.4,0,0.8-0.1,1.2-0.1C1303.1,1164,1301.3,1161.9,1301.3,1159.4z"/>
	<polygon class="st7" points="1318.9,1159.4 1316,1159.4 1316,1158 1311.5,1158 1306.5,1158 1306.5,1160.9 1311.5,1160.9 
		1319.8,1160.9 1321.1,1160.9 1321.1,1158 1319.8,1158 1318.9,1158 	"/>
	<polygon class="st7" points="1318.9,1159.4 1318.9,1158 1318.9,1153.4 1318.9,1153.4 1318.8,1153.4 1318.8,1153.4 1316,1153.4 
		1316,1158 1316,1159.4 	"/>
	<polygon class="st7" points="1369,1153.4 1369,1153.4 1369,1158 1369,1159.4 1371.9,1159.4 1371.9,1158 1371.9,1153.4 
		1371.9,1153.4 	"/>
	<polygon class="st1" points="1198.4,1153.4 1198.4,1148.4 1195.2,1148.4 1168.4,1148.4 1165.6,1148.4 1165.6,1153.4 1195.5,1153.4 
		1198.4,1153.4 	"/>
	<polygon class="st1" points="1318.8,1153.4 1318.8,1148.4 1315.7,1148.4 1288.8,1148.4 1286,1148.4 1286,1150.2 1302.3,1150.2 
		1302.3,1151.7 1286,1151.7 1286,1153.4 1316,1153.4 1318.8,1153.4 	"/>
	<polygon class="st12" points="1302.3,1150.2 1286,1150.2 1276.4,1150.2 1276.4,1151.7 1286,1151.7 1302.3,1151.7 	"/>
	<polygon class="st10" points="1511.4,1109.1 1480.9,1109.1 1433.6,1109.1 1433.6,1148.4 1436.8,1148.4 1511.4,1148.4 
		1511.4,1131.6 1511.4,1125.8 	"/>
	<polygon class="st11" points="1418.8,1109.1 1406.8,1109.1 1406.8,1125.8 1406.8,1133.4 1406.8,1148.4 1433.6,1148.4 
		1433.6,1109.1 	"/>
	<polygon class="st12" points="1436.8,1153.4 1436.8,1153.4 1436.8,1153.4 1486.9,1153.4 1486.9,1153.4 1489.8,1153.4 
		1489.8,1153.4 1514.8,1153.4 1514.8,1148.4 1511.4,1148.4 1436.8,1148.4 	"/>
	<path class="st7" d="M1494.6,1160.9h-1.3c0.3,0.9,0.7,1.7,1.4,2.3c0.9,0.9,2.2,1.4,3.6,1.4c0.4,0,0.8-0.1,1.2-0.1
		c-2.3-0.5-4-2.6-4-5.1s1.7-4.5,4-5.1c-0.4-0.1-0.8-0.1-1.2-0.1c-2.4,0-4.4,1.6-5,3.8h1.3V1160.9z"/>
	<path class="st7" d="M1478.9,1154.3c-0.4-0.1-0.8-0.1-1.2-0.1c-2.4,0-4.4,1.6-5,3.8h2.4C1475.6,1156.2,1477,1154.8,1478.9,1154.3z"
		/>
	<path class="st7" d="M1477.7,1164.7c0.4,0,0.8-0.1,1.2-0.1c-1.8-0.4-3.3-1.8-3.8-3.6h-2.4c0.2,0.7,0.5,1.3,1,1.9
		C1474.7,1163.9,1476.1,1164.7,1477.7,1164.7z"/>
	<path class="st7" d="M1486.9,1159.4v-1.5h-1.9h-10h-2.4h-22.6c0.1,0.5,0.2,1,0.2,1.5c0,0.5-0.1,1-0.2,1.5h22.6h2.4h10h8.3h1.3v-2.9
		h-1.3h-3.5v1.5H1486.9z"/>
	<path class="st7" d="M1439.9,1159.4c0-2.5,1.7-4.5,4-5.1c-0.4-0.1-0.8-0.1-1.2-0.1c-2.4,0-4.4,1.6-5,3.8h1.3v2.9h-1.3
		c0.1,0.5,0.4,1,0.6,1.4c0.9,1.4,2.5,2.3,4.4,2.3c0.4,0,0.8-0.1,1.2-0.1C1441.6,1164,1439.9,1161.9,1439.9,1159.4z"/>
	<path class="st7" d="M1419.2,1159.4c0-2.5,1.7-4.5,4-5.1c-0.4-0.1-0.8-0.1-1.2-0.1c-2.9,0-5.2,2.3-5.2,5.2c0,1,0.3,1.9,0.8,2.7
		c0.9,1.5,2.6,2.5,4.4,2.5c0.4,0,0.8-0.1,1.2-0.1C1421,1164,1419.2,1161.9,1419.2,1159.4z"/>
	<g>
		<path class="st13" d="M1067.3,1174.9v7.3c0,2.7-2.2,5-5,5c-0.5,0-0.9-0.1-1.4-0.2c-0.8,1.2-1.8,2.2-3,2.9c1.3,0.8,2.8,1.2,4.4,1.2
			c0.7,0,1.3-0.1,2-0.2c3.9-0.9,6.8-4.4,6.8-8.6C1071.1,1179.2,1069.6,1176.5,1067.3,1174.9z"/>
		<path class="st13" d="M1051.5,1173.6c-0.6-0.1-1.3-0.2-2-0.2c-4.9,0-8.8,4-8.8,8.8c0,1.1,0.2,2.2,0.6,3.2c1.3,3.3,4.5,5.6,8.2,5.6
			c0.7,0,1.3-0.1,2-0.2c3.9-0.9,6.8-4.4,6.8-8.6S1055.4,1174.5,1051.5,1173.6z"/>
		<path class="st13" d="M759.2,1165.5c-0.3,0.1-0.5,0.3-0.7,0.4c0.3,0.1,0.5,0.3,0.7,0.5V1165.5z"/>
		<path class="st13" d="M769.1,1164.7v17.5c0,2.7-2.2,5-5,5c-0.9,0-1.7-0.2-2.4-0.7c-0.9,1.1-2.1,2-3.3,2.7c2,1.1,4.3,1.8,6.7,1.8
			c1,0,2.1-0.1,3-0.4c6-1.4,10.4-6.7,10.4-13.1C778.6,1171.5,774.6,1166.4,769.1,1164.7z"/>
		<path class="st13" d="M748.7,1164.5c-1-0.2-2-0.4-3-0.4c-7.4,0-13.4,6-13.4,13.4c0,1.6,0.3,3.1,0.8,4.5c1.8,5.2,6.8,9,12.7,9
			c1,0,2.1-0.1,3-0.4c6-1.4,10.4-6.7,10.4-13.1S754.6,1165.9,748.7,1164.5z"/>
		<path class="st13" d="M871.3,1164.7v17.5c0,2.7-2.2,5-5,5c-0.9,0-1.7-0.2-2.4-0.7c-0.9,1.1-2.1,2-3.3,2.7c2,1.1,4.3,1.8,6.7,1.8
			c1,0,2.1-0.1,3-0.4c6-1.4,10.4-6.7,10.4-13.1C880.8,1171.5,876.8,1166.4,871.3,1164.7z"/>
		<path class="st13" d="M819.2,1127.2c0,0,10.7-6.2,10.7-17.6H534.8h-29.3H251.2c0,8.9,11.4,8.9,18.4,8.9c5,0,162.8,4.5,250.6,7
			c-8.4,1.7-14.8,9.1-14.8,18c0,10.1,8.3,18.3,18.4,18.3l48.8,2.9c-10.7-1.2-19-10.3-19-21.3v0H550c0-8.5,4.2-16,10.7-20.6
			c4.1-2.9,9.1-4.6,14.4-4.6c13.9,0,25.1,11.3,25.1,25.1h-3.7v0c0,0,0,0,0,0c11.1,2.3,21.1,3.6,29.3,3.8c0,0.1,0,0.3,0,0.4
			c0,11.8,9.6,21.4,21.5,21.4l56.9,3.4c-12.5-1.4-22.2-12-22.2-24.8v0h-4.3c0-9.9,4.9-18.7,12.5-24c4.8-3.3,10.6-5.3,16.8-5.3
			c16.1,0,29.1,12.9,29.3,29c4.2,0,8.4,0,12.7,0l-5.3,13.7h15.3h8.2l1.7-4.8l3.2-8.8c0.7,0,1.5,0,2.3,0c20.3,0,41.6,0,63.1,0
			c0,0.1,0,0.2,0,0.4c0,6.7,3.1,12.7,8,16.6c-6.4,1-11.3,6.6-11.3,13.3c0,1.7,0.3,3.3,0.9,4.7c1.9,5.1,6.8,8.7,12.6,8.7
			c1,0,2.1-0.1,3-0.4c6-1.4,10.4-6.7,10.4-13.1s-4.5-11.7-10.4-13.1c1-0.2,2-0.4,3-0.4c1.9,0,3.6,0.4,5.3,1.1c0.5,0.2,1,0.5,1.5,0.7
			c0.3,0.1,0.5,0.3,0.7,0.5v-0.9v-4.6h8.2l1.7-4.8l3.2-8.8c0.8,0,1.5,0,2.3,0l3.6,13.7h-9.1v3.3c0.7-0.1,1.4-0.2,2.1-0.2
			c4.9,0,9.1,2.6,11.5,6.5l31.2,1.9c-12.5-1.4-22.2-12-22.2-24.8c0-0.1,0-0.2,0-0.4c17.1,0,33.9,0,50,0c0,0.1,0,0.2,0,0.4
			c0,4.6-1.3,8.9-3.5,12.6c-0.3,0.5-0.6,1-0.9,1.5c0.3,0,0.6,0,0.9,0l48.8,2.9c-9.4-1.1-17-8.2-18.6-17.5c15.1,0,29.3,0,42.2,0
			c13.1,0,24.8,0,34.6,0l-5.3,13.7h15.3h8.2l1.7-4.8l3.2-8.8c0.8,0,1.5,0,2.3,0c1.5,0,2.8,0,3.9,0c22.1,0,44.3-4.6,60.8-10.9
			c0.9-0.4,1.8-0.8,2.6-1.2c4.1-2.1,7.3-5.3,9.5-9c1.5-2.4,2.5-5.1,3.1-7.9c-8,7.9-31,8.8-65.5,8.8H819.2z"/>
		<path class="st13" d="M977.6,1094h2.6c4.8,0,8.7-3.9,8.7-8.7v-14.5c0-4.8-3.9-8.7-8.7-8.7h-2.6c-4.8,0-8.7,3.9-8.7,8.7v14.5
			C968.9,1090.1,972.8,1094,977.6,1094z M969.9,1070.8c0-4.3,3.5-7.7,7.7-7.7h2.6c4.3,0,7.7,3.5,7.7,7.7v14.5c0,4.3-3.5,7.7-7.7,7.7
			h-2.6c-4.3,0-7.7-3.5-7.7-7.7V1070.8z"/>
		<path class="st13" d="M628.9,1094h2.6c4.8,0,8.7-3.9,8.7-8.7v-14.5c0-4.8-3.9-8.7-8.7-8.7h-2.6c-4.8,0-8.7,3.9-8.7,8.7v14.5
			C620.2,1090.1,624.1,1094,628.9,1094z M621.2,1070.8c0-4.3,3.5-7.7,7.7-7.7h2.6c4.3,0,7.7,3.5,7.7,7.7v14.5c0,4.3-3.5,7.7-7.7,7.7
			h-2.6c-4.3,0-7.7-3.5-7.7-7.7V1070.8z"/>
		<path class="st13" d="M1262.3,1154.2c-0.4,0-0.8,0.1-1.2,0.1c-2.3,0.5-4,2.6-4,5.1s1.7,4.5,4,5.1c0.4,0.1,0.8,0.1,1.2,0.1
			c1.9,0,3.5-1,4.5-2.5c0.5-0.8,0.8-1.7,0.8-2.7C1267.5,1156.5,1265.2,1154.2,1262.3,1154.2z"/>
		<path class="st13" d="M1240.5,1164.5c0.4,0.1,0.8,0.1,1.2,0.1c1.8,0,3.4-0.9,4.4-2.4c0.3-0.4,0.5-0.9,0.6-1.4h-10
			C1237.2,1162.7,1238.7,1164.1,1240.5,1164.5z"/>
		<path class="st13" d="M1241.7,1154.2c-0.4,0-0.8,0.1-1.2,0.1c-1.8,0.4-3.3,1.8-3.8,3.6h10
			C1246,1155.8,1244.1,1154.2,1241.7,1154.2z"/>
		<path class="st13" d="M1206.7,1154.2c-0.4,0-0.8,0.1-1.2,0.1c-2.3,0.5-4,2.6-4,5.1s1.7,4.5,4,5.1c0.4,0.1,0.8,0.1,1.2,0.1
			c1.6,0,3.1-0.8,4-1.9c0.4-0.5,0.8-1.1,1-1.8c0.1-0.5,0.2-1,0.2-1.5c0-0.5-0.1-1-0.2-1.5
			C1211.1,1155.8,1209.1,1154.2,1206.7,1154.2z"/>
		<path class="st13" d="M1191.1,1158c-0.6-2.2-2.6-3.8-5-3.8c-0.4,0-0.8,0.1-1.2,0.1c-2.3,0.5-4,2.6-4,5.1s1.7,4.5,4,5.1
			c0.4,0.1,0.8,0.1,1.2,0.1c1.4,0,2.8-0.6,3.7-1.5c0.6-0.6,1-1.4,1.3-2.2h-5v-2.9H1191.1z"/>
		<path class="st13" d="M1382.8,1154.2c-0.4,0-0.8,0.1-1.2,0.1c-2.3,0.5-4,2.6-4,5.1s1.7,4.5,4,5.1c0.4,0.1,0.8,0.1,1.2,0.1
			c2,0,3.6-1.1,4.5-2.7c0.4-0.8,0.7-1.6,0.7-2.5C1388,1156.5,1385.7,1154.2,1382.8,1154.2z"/>
		<path class="st13" d="M1361,1164.5c0.4,0.1,0.8,0.1,1.2,0.1c2,0,3.7-1.1,4.6-2.8c0.2-0.3,0.3-0.6,0.4-1h-10
			C1357.7,1162.7,1359.1,1164.1,1361,1164.5z"/>
		<path class="st13" d="M1362.1,1154.2c-0.4,0-0.8,0.1-1.2,0.1c-1.8,0.4-3.3,1.8-3.8,3.6h10
			C1366.5,1155.8,1364.5,1154.2,1362.1,1154.2z"/>
		<path class="st13" d="M1327.2,1154.2c-0.4,0-0.8,0.1-1.2,0.1c-2.3,0.5-4,2.6-4,5.1s1.7,4.5,4,5.1c0.4,0.1,0.8,0.1,1.2,0.1
			c2,0,3.7-1.1,4.6-2.8c0.2-0.3,0.3-0.6,0.4-1c0.1-0.5,0.2-1,0.2-1.5c0-0.5-0.1-1-0.2-1.5
			C1331.5,1155.8,1329.6,1154.2,1327.2,1154.2z"/>
		<path class="st13" d="M1311.5,1158c-0.6-2.2-2.6-3.8-5-3.8c-0.4,0-0.8,0.1-1.2,0.1c-2.3,0.5-4,2.6-4,5.1s1.7,4.5,4,5.1
			c0.4,0.1,0.8,0.1,1.2,0.1c2,0,3.7-1.1,4.6-2.7c0.2-0.3,0.3-0.7,0.4-1h-5v-2.9H1311.5z"/>
		<path class="st13" d="M1500.7,1154.2c-0.4,0-0.8,0.1-1.2,0.1c-2.3,0.5-4,2.6-4,5.1s1.7,4.5,4,5.1c0.4,0.1,0.8,0.1,1.2,0.1
			c1.2,0,2.4-0.5,3.3-1.2c1.2-1,1.9-2.4,1.9-4C1505.9,1156.5,1503.6,1154.2,1500.7,1154.2z"/>
		<path class="st13" d="M1480.1,1154.2c-0.4,0-0.8,0.1-1.2,0.1c-1.8,0.4-3.3,1.8-3.8,3.6h10
			C1484.4,1155.8,1482.4,1154.2,1480.1,1154.2z"/>
		<path class="st13" d="M1478.9,1164.5c0.4,0.1,0.8,0.1,1.2,0.1c1.5,0,2.9-0.7,3.8-1.7c0.5-0.6,0.9-1.3,1.2-2.1h-10
			C1475.6,1162.7,1477,1164.1,1478.9,1164.5z"/>
		<path class="st13" d="M1445.1,1154.2c-0.4,0-0.8,0.1-1.2,0.1c-2.3,0.5-4,2.6-4,5.1s1.7,4.5,4,5.1c0.4,0.1,0.8,0.1,1.2,0.1
			c1.8,0,3.3-0.9,4.3-2.2c0.3-0.5,0.6-1,0.7-1.5c0.1-0.5,0.2-1,0.2-1.5c0-0.5-0.1-1-0.2-1.5
			C1449.5,1155.8,1447.5,1154.2,1445.1,1154.2z"/>
		<path class="st13" d="M1429.5,1158c-0.6-2.2-2.6-3.8-5-3.8c-0.4,0-0.8,0.1-1.2,0.1c-2.3,0.5-4,2.6-4,5.1s1.7,4.5,4,5.1
			c0.4,0.1,0.8,0.1,1.2,0.1c1.9,0,3.5-1,4.4-2.4c0.3-0.4,0.5-0.9,0.6-1.3h-5v-2.9H1429.5z"/>
	</g>
	<polygon class="st7" points="1424.5,1158 1424.5,1160.9 1429.5,1160.9 1437.8,1160.9 1439,1160.9 1439,1158 1437.8,1158 
		1436.8,1158 1436.8,1159.4 1433.9,1159.4 1433.9,1158 1429.5,1158 	"/>
	<polygon class="st7" points="1433.9,1153.4 1433.9,1158 1433.9,1159.4 1436.8,1159.4 1436.8,1158 1436.8,1153.4 1436.8,1153.4 
		1436.8,1153.4 1436.8,1153.4 	"/>
	<polygon class="st7" points="1486.9,1153.4 1486.9,1153.4 1486.9,1158 1486.9,1159.4 1489.8,1159.4 1489.8,1158 1489.8,1153.4 
		1489.8,1153.4 	"/>
	<polygon class="st1" points="1404,1148.4 1404,1150.2 1420.2,1150.2 1420.2,1151.7 1404,1151.7 1404,1153.4 1433.9,1153.4 
		1436.8,1153.4 1436.8,1153.4 1436.8,1148.4 1433.6,1148.4 1406.8,1148.4 	"/>
	<polygon class="st12" points="1394.3,1150.2 1394.3,1151.7 1396.9,1151.7 1404,1151.7 1420.2,1151.7 1420.2,1150.2 1404,1150.2 
		1396.9,1150.2 	"/>
</g>
</svg>
