<?xml version="1.0" encoding="utf-8"?>
<!-- Generator: Adobe Illustrator 24.0.0, SVG Export Plug-In . SVG Version: 6.00 Build 0)  -->
<svg version="1.1" id="b8eef085-bbb0-4c81-9a53-f8aa424b48dc"
	 xmlns="http://www.w3.org/2000/svg" xmlns:xlink="http://www.w3.org/1999/xlink" x="0px" y="0px" viewBox="0 0 1063.1 672.7"
	 style="enable-background:new 0 0 1063.1 672.7;" xml:space="preserve">
<style type="text/css">
	.st0{fill:#3F3D56;}
	.st1{fill:#3F51B5;}
	.st2{fill:#F2F2F2;}
	.st3{opacity:3.000000e-02;enable-background:new    ;}
</style>
<title>aircraft</title>
<path class="st0" d="M203.5,396.7c9.8,3.6,26.9,6.6,46.8,8.9c54,6.5,128,8.8,128,8.8s380.4,31.5,665.5-85.8c0,0,41.5-21.7,3-51
	c-5.9-4.4-12.2-8.2-18.8-11.5l-0.5-0.5c-4.4-4-9.1-7.7-14.1-10.9c-14.8-9.5-39.7-20.9-70.1-15.7L194.5,360.1
	C194.5,360.1,167.1,383.2,203.5,396.7z"/>
<path class="st0" d="M352.7,341.8L195.9,230.5l-69.1,12l67.6,117.6C194.5,360.1,350.9,361.4,352.7,341.8z"/>
<polygon class="st0" points="747.3,274.2 435.1,186.6 384.7,197.1 525.8,260.6 569.9,309.9 "/>
<path class="st1" d="M250.2,405.6c54,6.5,128,8.8,128,8.8s380.4,31.5,665.5-85.8c0,0,41.5-21.7,3-51l-0.1,0.5
	c0,0-61.5,41.6-355.5,76.3L250.2,405.6z"/>
<path class="st0" d="M300.4,403.2l-139.6,57l-35.1-3.9l83.5-62.8C209.3,393.5,310.3,372,300.4,403.2z"/>
<path class="st1" d="M996,284.2c6.7,0.1,21.9-11.1,31.4-18.6c-4.4-4-9.1-7.7-14.1-10.9c-7.6,5.9-21.3,15.4-28.8,15
	C973.5,269.3,986,284,996,284.2z"/>
<path class="st0" d="M361.8,600.2l89.6,4.7l252-169.9l46.8-31.5l22.7-15.3c-42.6-36-216.6,13.7-216.6,13.7
	c-3.3,2.8-4.4,7.5-4.2,12.6c0.3,9.7,4.8,21,6.6,25.1c0.4,1,0.7,1.5,0.7,1.5L361.8,600.2z"/>
<path class="st2" d="M657,512.1l15.5,9.8l-9.4-17.1c2.7-2.1,6-3.3,9.4-3.3h0.2c1.1,0,2.2-0.1,3.2-0.2l5.3,3.3l-2.2-4.1
	c3.7-1.3,6.9-3.8,9.2-7l9.4,6l-5.9-10.8c5.5-6.6,12.9-10.7,21.1-10.7c9.8,0,18.5,5.8,24.1,14.9c3.4,5.5,9.5,8.8,16,8.6h0.5
	c10.8,0,19.6,12.2,19.6,27.4s-8.8,27.4-19.6,27.4c-2.4,0-4.7-0.6-6.8-1.7c-7.4-3.6-16.1-3.8-23.7-0.5c-6.4,2.9-13.7,2.9-20.1,0
	c-7.5-3.3-16.1-3.1-23.5,0.5c-2.1,1.1-4.4,1.7-6.8,1.7c-10.8,0-19.6-12.2-19.6-27.4C652.9,523,654.3,517.3,657,512.1z"/>
<path class="st3" d="M686.2,552.2c5.6-1.1,11.5-0.4,16.8,1.8c6.4,2.9,13.7,2.9,20.1,0c7.6-3.3,16.2-3.2,23.7,0.5
	c2.1,1.1,4.4,1.7,6.8,1.7c9.6,0,17.6-9.7,19.2-22.4c-1.9-1.4-3.6-3.2-4.8-5.2c-5.6-9.1-14.3-14.9-24.1-14.9s-18.4,5.7-24,14.7
	c-3.4,5.5-9.5,8.8-16,8.8h-0.2C696.1,537.1,689.5,543.2,686.2,552.2z"/>
<path class="st2" d="M218,499.1l15.5,9.8l-9.4-17.1c2.7-2.1,6-3.3,9.4-3.3h0.2c1.1,0,2.2-0.1,3.2-0.2l5.3,3.3l-2.2-4.1
	c3.7-1.3,6.9-3.8,9.2-7l9.4,6l-5.9-10.8c5.5-6.6,12.9-10.7,21.1-10.7c9.8,0,18.5,5.8,24.1,14.9c3.4,5.5,9.5,8.8,16,8.6h0.5
	c10.8,0,19.6,12.2,19.6,27.4s-8.8,27.4-19.6,27.4c-2.4,0-4.7-0.6-6.8-1.7c-7.4-3.6-16.1-3.8-23.7-0.5c-6.4,2.9-13.7,2.9-20.1,0
	c-7.5-3.3-16.1-3.1-23.5,0.5c-2.1,1.1-4.4,1.7-6.8,1.7c-10.8,0-19.6-12.2-19.6-27.4C213.9,510,215.3,504.3,218,499.1z"/>
<path class="st3" d="M247.2,539.2c5.6-1.1,11.5-0.4,16.8,1.8c6.4,2.9,13.7,2.9,20.1,0c7.6-3.3,16.2-3.2,23.7,0.5
	c2.1,1.1,4.4,1.7,6.8,1.7c9.6,0,17.6-9.7,19.2-22.4c-1.9-1.4-3.6-3.2-4.8-5.2c-5.6-9.1-14.3-14.9-24.1-14.9s-18.4,5.7-24,14.7
	c-3.4,5.5-9.5,8.9-16,8.8h-0.2C257.1,524.1,250.5,530.2,247.2,539.2z"/>
<path class="st2" d="M218,171.1l15.5,9.8l-9.4-17.1c2.7-2.1,6-3.3,9.4-3.4h0.2c1.1,0,2.2-0.1,3.2-0.2l5.3,3.3l-2.2-4.1
	c3.7-1.3,6.9-3.8,9.2-7l9.4,6l-5.9-10.8c5.5-6.6,12.9-10.7,21.1-10.7c9.8,0,18.5,5.8,24.1,14.9c3.4,5.5,9.5,8.8,16,8.6h0.5
	c10.8,0,19.6,12.2,19.6,27.4s-8.8,27.4-19.6,27.4c-2.4,0-4.7-0.6-6.8-1.7c-7.4-3.6-16.1-3.8-23.7-0.5c-6.4,2.9-13.7,2.9-20.1,0
	c-7.5-3.3-16.1-3.1-23.5,0.5c-2.1,1.1-4.4,1.7-6.8,1.7c-10.8,0-19.6-12.2-19.6-27.4C213.9,182,215.3,176.3,218,171.1z"/>
<path class="st3" d="M247.2,211.2c5.6-1.1,11.5-0.4,16.8,1.8c6.4,2.9,13.7,2.9,20.1,0c7.6-3.3,16.2-3.2,23.7,0.5
	c2.1,1.1,4.4,1.7,6.8,1.7c9.6,0,17.6-9.7,19.2-22.4c-1.9-1.4-3.6-3.2-4.8-5.2c-5.6-9.1-14.3-14.9-24.1-14.9s-18.4,5.7-24,14.7
	c-3.4,5.5-9.5,8.9-16,8.8h-0.2C257.1,196.1,250.5,202.2,247.2,211.2z"/>
<path class="st2" d="M860,135.7l7.8,4.9l-4.7-8.5c1.3-1.1,3-1.7,4.7-1.7h0.1c0.5,0,1.1,0,1.6-0.1l2.6,1.7l-1.1-2
	c1.9-0.7,3.5-1.9,4.6-3.5l4.7,3l-3-5.4c2.5-3.3,6.4-5.2,10.5-5.3c4.9,0,9.2,2.9,12,7.4c1.7,2.8,4.8,4.4,8,4.3h0.3
	c5.4,0,9.8,6.1,9.8,13.7s-4.4,13.6-9.8,13.6c-1.2,0-2.4-0.3-3.4-0.9c-3.7-1.8-8-1.9-11.8-0.2c-3.2,1.4-6.8,1.4-10,0
	c-3.8-1.6-8-1.5-11.7,0.2c-1,0.5-2.2,0.8-3.4,0.8c-5.4,0-9.8-6.1-9.8-13.6C857.9,141.2,858.6,138.3,860,135.7z"/>
<path class="st3" d="M874.6,155.7c2.8-0.5,5.7-0.2,8.4,0.9c1.6,0.7,3.3,1.1,5,1.1c1.7,0,3.5-0.4,5-1.1c3.8-1.7,8.1-1.6,11.8,0.2
	c1,0.6,2.2,0.8,3.4,0.9c4.8,0,8.8-4.8,9.6-11.2c-1-0.7-1.8-1.6-2.4-2.6c-2.8-4.5-7.1-7.4-12-7.4c-4.8,0-9.2,2.9-12,7.3
	c-1.7,2.8-4.7,4.4-8,4.4h-0.1C879.5,148.2,876.2,151.3,874.6,155.7z"/>
<path class="st2" d="M170,624.7l7.8,4.9l-4.7-8.5c1.3-1.1,3-1.7,4.7-1.7h0.1c0.5,0,1.1,0,1.6-0.1l2.6,1.7l-1.1-2
	c1.9-0.7,3.5-1.9,4.6-3.5l4.7,3l-3-5.4c2.5-3.3,6.4-5.2,10.5-5.3c4.9,0,9.2,2.9,12,7.4c1.7,2.8,4.8,4.4,8,4.3h0.3
	c5.4,0,9.8,6.1,9.8,13.7s-4.4,13.7-9.8,13.7c-1.2,0-2.4-0.3-3.4-0.8c-3.7-1.8-8-1.9-11.8-0.2c-3.2,1.4-6.8,1.4-10,0
	c-3.8-1.6-8-1.5-11.7,0.2c-1,0.5-2.2,0.8-3.4,0.8c-5.4,0-9.8-6.1-9.8-13.7C167.9,630.2,168.6,627.3,170,624.7z"/>
<path class="st3" d="M184.6,644.7c2.8-0.5,5.7-0.2,8.4,0.9c1.6,0.7,3.3,1.1,5,1.1c1.7,0,3.5-0.4,5-1.1c3.8-1.7,8.1-1.6,11.8,0.2
	c1,0.6,2.2,0.8,3.4,0.8c4.8,0,8.8-4.8,9.6-11.2c-1-0.7-1.8-1.6-2.4-2.6c-2.8-4.5-7.2-7.4-12-7.4s-9.2,2.9-12,7.3
	c-1.7,2.8-4.7,4.4-8,4.4h-0.1C189.5,637.2,186.2,640.3,184.6,644.7z"/>
<path class="st2" d="M890,650.7l7.8,4.9l-4.7-8.5c1.3-1.1,3-1.7,4.7-1.7h0.1c0.5,0,1.1,0,1.6-0.1l2.6,1.7l-1.1-2
	c1.9-0.7,3.5-1.9,4.6-3.5l4.7,3l-3-5.4c2.5-3.3,6.4-5.2,10.5-5.3c4.9,0,9.2,2.9,12,7.4c1.7,2.8,4.8,4.4,8,4.3h0.3
	c5.4,0,9.8,6.1,9.8,13.7s-4.4,13.7-9.8,13.7c-1.2,0-2.4-0.3-3.4-0.8c-3.7-1.8-8-1.9-11.8-0.2c-3.2,1.4-6.8,1.4-10,0
	c-3.8-1.6-8-1.5-11.7,0.2c-1,0.5-2.2,0.8-3.4,0.8c-5.4,0-9.8-6.1-9.8-13.7C887.9,656.2,888.6,653.3,890,650.7z"/>
<path class="st3" d="M904.6,670.7c2.8-0.5,5.7-0.2,8.4,0.9c1.6,0.7,3.3,1.1,5,1.1c1.7,0,3.5-0.4,5-1.1c3.8-1.7,8.1-1.6,11.8,0.2
	c1,0.6,2.2,0.8,3.4,0.8c4.8,0,8.8-4.8,9.6-11.2c-1-0.7-1.8-1.6-2.4-2.6c-2.8-4.5-7.1-7.4-12-7.4c-4.8,0-9.2,2.9-12,7.3
	c-1.7,2.8-4.7,4.4-8,4.4h-0.1C909.5,663.2,906.2,666.3,904.6,670.7z"/>
<path class="st2" d="M532,34.1l15.5,9.8l-9.4-17.1c2.7-2.1,6-3.3,9.4-3.4h0.2c1.1,0,2.2-0.1,3.2-0.2l5.3,3.3l-2.2-4.1
	c3.7-1.3,6.9-3.8,9.2-7l9.4,6l-5.9-10.8C572.1,4.1,579.6,0,587.7,0c9.8,0,18.5,5.8,24.1,14.9c3.4,5.5,9.5,8.8,16,8.6h0.5
	c10.8,0,19.6,12.2,19.6,27.4s-8.8,27.4-19.6,27.4c-2.4,0-4.7-0.6-6.8-1.7c-7.4-3.6-16.1-3.8-23.7-0.5c-6.4,2.9-13.7,2.9-20.1,0.1
	c-7.5-3.3-16.1-3.1-23.5,0.4c-2.1,1.1-4.4,1.7-6.8,1.7C536.7,78.2,528,66,528,50.9C527.9,45,529.3,39.3,532,34.1z"/>
<path class="st3" d="M561.2,74.2c5.6-1.1,11.5-0.4,16.8,1.8c6.4,2.9,13.7,2.9,20.1,0c7.6-3.3,16.2-3.2,23.7,0.5
	c2.1,1.1,4.4,1.7,6.8,1.7c9.6,0,17.6-9.7,19.2-22.4c-1.9-1.4-3.6-3.2-4.8-5.2c-5.6-9.1-14.4-14.9-24.1-14.9c-9.8,0-18.4,5.7-24,14.7
	c-3.4,5.5-9.5,8.9-16,8.8h-0.2C571.1,59.1,564.5,65.2,561.2,74.2z"/>
<path class="st2" d="M2,205.7l7.8,4.9l-4.7-8.5c1.3-1.1,3-1.7,4.7-1.7h0.1c0.5,0,1.1,0,1.6-0.1l2.6,1.7l-1.1-2
	c1.9-0.7,3.5-1.9,4.6-3.5l4.7,3l-3-5.4c2.5-3.3,6.4-5.2,10.5-5.3c4.9,0,9.2,2.9,12,7.4c1.7,2.8,4.8,4.4,8,4.3H50
	c5.4,0,9.8,6.1,9.8,13.7s-4.4,13.6-9.8,13.6c-1.2,0-2.4-0.3-3.4-0.9c-3.7-1.8-8-1.9-11.8-0.2c-3.2,1.4-6.8,1.4-10,0
	c-3.8-1.6-8-1.5-11.7,0.2c-1,0.5-2.2,0.8-3.4,0.8c-5.4,0-9.8-6.1-9.8-13.6C-0.1,211.2,0.6,208.3,2,205.7z"/>
<path class="st3" d="M16.6,225.7c2.8-0.5,5.7-0.2,8.4,0.9c1.6,0.7,3.3,1.1,5,1.1c1.7,0,3.4-0.4,5-1.1c3.8-1.7,8.1-1.6,11.8,0.2
	c1,0.6,2.2,0.8,3.4,0.9c4.8,0,8.8-4.8,9.6-11.2c-1-0.7-1.8-1.6-2.4-2.6c-2.8-4.5-7.2-7.4-12-7.4s-9.2,2.9-12,7.3
	c-1.7,2.7-4.7,4.4-7.9,4.4h-0.1C21.5,218.2,18.2,221.3,16.6,225.7z"/>
</svg>
